<?xml version="1.0" encoding="UTF-8" standalone="no"?>
<!-- Generator: Adobe Illustrator 22.1.0, SVG Export Plug-In . SVG Version: 6.00 Build 0)  -->
<svg version="1.1" id="Layer_4_1_" x="0px" y="0px" viewBox="0 0 512 512" xml:space="preserve" sodipodi:docname="Phoenix_Kit.svg" width="512" height="512" inkscape:version="1.2.2 (732a01da63, 2022-12-09)" xmlns:inkscape="http://www.inkscape.org/namespaces/inkscape" xmlns:sodipodi="http://sodipodi.sourceforge.net/DTD/sodipodi-0.dtd" xmlns="http://www.w3.org/2000/svg" xmlns:svg="http://www.w3.org/2000/svg"><defs id="defs47"/><sodipodi:namedview id="namedview45" pagecolor="#ffffff" bordercolor="#666666" borderopacity="1.0" inkscape:pageshadow="2" inkscape:pageopacity="0" inkscape:pagecheckerboard="0" showgrid="false" inkscape:zoom="1.6076602" inkscape:cx="160.17066" inkscape:cy="232.94724" inkscape:window-width="2560" inkscape:window-height="1361" inkscape:window-x="-9" inkscape:window-y="-9" inkscape:window-maximized="1" inkscape:current-layer="Layer_4_1_" inkscape:showpageshadow="2" inkscape:deskcolor="#d1d1d1"/>
<style type="text/css" id="style2">
	.st0{fill:#241C1C;}
	.st1{fill:#FE7E00;}
</style>



















<g id="g4563" transform="matrix(2.6045102,0,0,2.6045102,-55.084166,-211.12556)"><path style="fill:#030303;fill-opacity:1;stroke:#030303;stroke-width:1px;stroke-linecap:butt;stroke-linejoin:miter;stroke-opacity:1" d="m 77.221002,136.655 7.216832,6.66533 v 45.54347 l -7.216832,7.57007 -0.571731,11.84775 3.270369,4.39456 80.12404,-0.91979 1.60732,-4.60755 v -10.20397 l -10.60084,-8.48986 -0.51099,-43.63899 11.11183,-8.16102 -9e-5,-19.377 h -7.98853 l -5.12592,-4.842 h -12.53255 l -5.61565,4.842 H 106.809 l -5.42033,-4.842 H 87.806486 l -5.022485,4.996 h -5.56267 z" id="path4327"/><g id="g1207" transform="matrix(5.1474603,0,0,5.1474603,23.697802,84.12454)"><path class="st0" d="M 26.430597,12.2 V 20 l 1.269315,1.1 V 10.9 Z" id="path4" style="fill:#ffffff;fill-opacity:1;stroke-width:0.890711" sodipodi:nodetypes="ccccc"/><path class="st0" d="m 10.707037,19.9 c 0,-2.6 0,-5.2 0,-7.8 L 9.4,11 v 10.2 l 1.307037,-1.3 c 0,0.1 0,0.1 0,0 z" id="path6" style="fill:#ffffff;fill-opacity:1;stroke-width:0.933465" sodipodi:nodetypes="cccccc"/><path class="st0" d="M 23.8,3.8 H 13.2 c -2.1,0 -3.8,1.7 -3.8,3.8 v 1.7000154 l 0.997982,0.9051066 6.4e-5,-3.7344631 h 1.080663 L 12.45443,5.5000832 h 2.638619 l 1.05301,0.9406581 h 4.580757 L 21.81777,5.5000832 h 2.434706 l 0.995815,0.9406581 h 1.551937 l 1.7e-5,3.7643807 L 27.7,9.3000154 27.699912,7.6 C 27.699804,5.5 25.9,3.8 23.8,3.8 Z" id="path8" style="fill:#ffffff;fill-opacity:1" sodipodi:nodetypes="sssccccccccccccccss"/><path class="st0" d="m 26.800245,23.9 c 0,0.3 -0.28622,0.6 -0.784763,0.6 H 11.302186 c -0.735212,0 -0.904204,-0.211503 -0.904204,-0.6 V 21.818397 L 9.3,22.8 v 1.4 c 0,1.47796 0.6426233,2.2 2.2,2.2 h 14.564389 c 1.348907,0 1.635523,-0.762199 1.635523,-2.2 v -1.4 l -0.899667,-0.882332 z" id="path10" style="fill:#ffffff;fill-opacity:1" sodipodi:nodetypes="ssssccssssccs"/><path class="st0" d="M 22,0.8 C 21.7,0.5 21.3,0.3 20.9,0.3 H 18.5 16.1 C 15.7,0.3 15.3,0.5 15,0.8 14.5,1.5 13.4,2.5 12.1,2.5 V 3 h 6.3 6.3 V 2.5 c -1.1,0 -2.2,-1 -2.7,-1.7 z m -6.3,1.4 0.8,-0.7 h 4 l 0.8,0.7 z" id="path12" style="fill:#ffffff;fill-opacity:1"/><path class="st0" d="m 11.2,27.3 v 3.9 c 0,0.2 0.2,0.4 0.4,0.4 h 13.8 c 0.2,0 0.4,-0.2 0.4,-0.4 v -3.9 z m 1.5,3.5 c -0.3,0 -0.5,-0.2 -0.5,-0.5 0,-0.3 0.2,-0.5 0.5,-0.5 0.3,0 0.5,0.2 0.5,0.5 0,0.2 -0.2,0.5 -0.5,0.5 z m 0,-1.8 c -0.3,0 -0.5,-0.2 -0.5,-0.5 0,-0.3 0.2,-0.5 0.5,-0.5 0.3,0 0.5,0.2 0.5,0.5 0,0.3 -0.2,0.5 -0.5,0.5 z m 1.4,0.9 c -0.3,0 -0.5,-0.2 -0.5,-0.5 0,-0.3 0.2,-0.5 0.5,-0.5 0.3,0 0.5,0.2 0.5,0.5 0,0.3 -0.2,0.5 -0.5,0.5 z m 1.5,0.9 c -0.3,0 -0.5,-0.2 -0.5,-0.5 0,-0.3 0.2,-0.5 0.5,-0.5 0.3,0 0.5,0.2 0.5,0.5 0,0.2 -0.2,0.5 -0.5,0.5 z m 0,-1.8 c -0.3,0 -0.5,-0.2 -0.5,-0.5 0,-0.3 0.2,-0.5 0.5,-0.5 0.3,0 0.5,0.2 0.5,0.5 0,0.3 -0.2,0.5 -0.5,0.5 z m 1.4,0.9 c -0.3,0 -0.5,-0.2 -0.5,-0.5 0,-0.3 0.2,-0.5 0.5,-0.5 0.3,0 0.5,0.2 0.5,0.5 0,0.3 -0.2,0.5 -0.5,0.5 z m 1.5,0.9 c -0.3,0 -0.5,-0.2 -0.5,-0.5 0,-0.3 0.2,-0.5 0.5,-0.5 0.3,0 0.5,0.2 0.5,0.5 0,0.2 -0.2,0.5 -0.5,0.5 z m 0,-1.8 C 18.2,29 18,28.8 18,28.5 18,28.2 18.2,28 18.5,28 c 0.3,0 0.5,0.2 0.5,0.5 0,0.3 -0.2,0.5 -0.5,0.5 z m 1.5,0.9 c -0.3,0 -0.5,-0.2 -0.5,-0.5 0,-0.3 0.2,-0.5 0.5,-0.5 0.3,0 0.5,0.2 0.5,0.5 -0.1,0.3 -0.3,0.5 -0.5,0.5 z m 1.4,0.9 c -0.3,0 -0.5,-0.2 -0.5,-0.5 0,-0.3 0.2,-0.5 0.5,-0.5 0.3,0 0.5,0.2 0.5,0.5 0,0.2 -0.3,0.5 -0.5,0.5 z m 0,-1.8 c -0.3,0 -0.5,-0.2 -0.5,-0.5 0,-0.3 0.2,-0.5 0.5,-0.5 0.3,0 0.5,0.2 0.5,0.5 0,0.3 -0.3,0.5 -0.5,0.5 z m 1.5,0.9 c -0.3,0 -0.5,-0.2 -0.5,-0.5 0,-0.3 0.2,-0.5 0.5,-0.5 0.3,0 0.5,0.2 0.5,0.5 0,0.3 -0.3,0.5 -0.5,0.5 z m 1.4,0.9 c -0.3,0 -0.5,-0.2 -0.5,-0.5 0,-0.3 0.2,-0.5 0.5,-0.5 0.3,0 0.5,0.2 0.5,0.5 -0.1,0.2 -0.3,0.5 -0.5,0.5 z m 0,-1.8 c -0.3,0 -0.5,-0.2 -0.5,-0.5 0,-0.3 0.2,-0.5 0.5,-0.5 0.3,0 0.5,0.2 0.5,0.5 0,0.3 -0.3,0.5 -0.5,0.5 z" id="path14" style="fill:#ffffff;fill-opacity:1"/><path class="st0" d="m 25.8,35 -1.1,1.7 h 1.1 c 1,0 1.7,-0.7 1.8,-1.7 z" id="path16" style="fill:#ffffff;fill-opacity:1" sodipodi:nodetypes="ccscc"/><path class="st0" d="M 15.6,36.699944 21.5,36.7 20.4,35 h -3.7 z" id="path18" style="fill:#ffffff;fill-opacity:1" sodipodi:nodetypes="ccccc"/><path class="st0" d="M 11.2,35 H 9.4 c 0.1,0.9 0.8,1.7 1.8,1.7 l 1.1,-5.6e-5 z" id="path20" style="fill:#ffffff;fill-opacity:1" sodipodi:nodetypes="ccscc"/><path class="st1" d="M 27.7,33.7 26.2,32.2 H 25.9 C 25.6,32.7 25.2,33 24.6,33 h -12 C 12,33 11.5,32.7 11.3,32.2 H 11 l -1.5,1.5 v 0.5 h 2 l 1.1,1.8 c 0.3,0.4 0.7,0.7 1.2,0.7 h 0.3 v 0 h 0.3 c 0.5,0 1,-0.3 1.2,-0.7 l 1.1,-1.8 h 4 l 1.1,1.8 c 0.3,0.4 0.7,0.7 1.2,0.7 h 0.6 c 0.5,0 1,-0.3 1.2,-0.7 l 1.1,-1.8 h 2 v -0.5 z" id="path22" sodipodi:nodetypes="cccssccccccsccsccccccccccc"/><g id="g26">
	<path class="st1" d="M 18.5,20.3 15.8,18.2 V 14 h 5.3 v 4.2 z m -2.3,-2.2 2.3,1.8 2.3,-1.8 v -3.7 h -4.6 z" id="path24"/>
</g><polygon class="st0" points="17.9,18.9 18.2,17.4 17.5,17.6 17.7,14.8 16.6,14.8 16.6,17.9 " id="polygon28" style="fill:#ffffff;fill-opacity:1"/><polygon class="st0" points="19.9,16.2 18.1,19 18.5,19.4 20.4,17.9 20.4,14.8 19.5,14.8 18.9,16.5 " id="polygon30" style="fill:#ffffff;fill-opacity:1"/><polygon class="st0" points="19.6,21.4 18.5,20.6 17.4,21.4 18.5,23.2 " id="polygon32" style="fill:#ffffff;fill-opacity:1"/><polygon class="st0" points="14.9,21.4 16.7,20 15.5,21.4 16.3,21.4 17.9,20.3 15.8,18.7 14.1,21.4 " id="polygon34" style="fill:#ffffff;fill-opacity:1"/><polygon class="st0" points="22,21.5 20.2,20 21.5,21.5 20.6,21.5 19.1,20.4 21.2,18.8 22.8,21.5 " id="polygon36" style="fill:#ffffff;fill-opacity:1"/><polygon class="st0" points="12.5,15.1 15.4,18.1 15.4,12.8 11.4,9.5 11.6,10.4 14.1,12.9 11.8,11.5 11.9,12 14.1,14.2 12.1,13 12.2,13.5 14.1,15.3 12.4,14.4 " id="polygon38" style="fill:#ffffff;fill-opacity:1"/><path id="polygon40" style="fill:#ffffff" class="st0" d="M 24.012126,15.1 21.6,18.1 v -5.3 l 3.412126,-3.3 -0.1,0.9 -2.012126,2.5 1.812126,-1.4 -0.1,0.5 L 22.9,14.2 24.412126,13 l -0.1,0.5 L 22.9,15.3 24.112126,14.4 Z" sodipodi:nodetypes="cccccccccccccc"/><path class="st0" d="m 19.9,11.1 1.3,-0.2 -0.3,-0.5 -1,-0.1 -0.3,-0.4 -3.1,-0.5 0.9,1.1 -0.4,1.4 -1.1,0.4 v 1.4 h 5.3 v -1.4 l -1,-0.4 z m -1.2,-0.7 -0.2,-0.4 0.7,0.1 z" id="path42" style="fill:#ffffff;fill-opacity:1"/></g></g><style id="stylish-2" class="stylish" type="text/css">.top-bar {
    display: none;
}</style></svg>