<?xml version="1.0" encoding="UTF-8" standalone="no"?>
<!-- Creator: CorelDRAW X8 -->
<svg xml:space="preserve" width="512" height="129.84" version="1.1" style="clip-rule:evenodd;fill-rule:evenodd;image-rendering:optimizeQuality;shape-rendering:geometricPrecision;text-rendering:geometricPrecision" viewBox="0 0 512 129.84" id="svg29" sodipodi:docname="A-13 Sentry.svg" inkscape:version="1.2 (dc2aedaf03, 2022-05-15)" xmlns:inkscape="http://www.inkscape.org/namespaces/inkscape" xmlns:sodipodi="http://sodipodi.sourceforge.net/DTD/sodipodi-0.dtd" xmlns="http://www.w3.org/2000/svg" xmlns:svg="http://www.w3.org/2000/svg"><style id="stylish-2" class="stylish" type="text/css">.top-bar {
    display: none;
}</style><sodipodi:namedview id="namedview31" pagecolor="#ffffff" bordercolor="#666666" borderopacity="1.0" inkscape:pageshadow="2" inkscape:pageopacity="0.0" inkscape:pagecheckerboard="0" showgrid="false" inkscape:zoom="0.70710678" inkscape:cx="235.46656" inkscape:cy="263.04372" inkscape:window-width="1366" inkscape:window-height="697" inkscape:window-x="-8" inkscape:window-y="-8" inkscape:window-maximized="1" inkscape:current-layer="Layer_x0020_1" inkscape:showpageshadow="2" inkscape:deskcolor="#d1d1d1"/>
 <defs id="defs4">
  <style type="text/css" id="style2">
   <![CDATA[
    .fil1 {fill:#8A0020}
    .fil2 {fill:#CA003E}
    .fil0 {fill:#CB013F}
    .fil3 {fill:#ED0049}
    .fil4 {fill:#FF2D59}
   ]]>
  </style>
 <style type="text/css" id="style918">
   <![CDATA[
    .fil1 {fill:#8A0020}
    .fil2 {fill:#CA003E}
    .fil0 {fill:#CB013F}
    .fil3 {fill:#ED0049}
    .fil4 {fill:#FF2D59}
   ]]>
  </style><style type="text/css" id="style965">
   <![CDATA[
    .fil1 {fill:#8A0020}
    .fil2 {fill:#CA003E}
    .fil0 {fill:#CB013F}
    .fil3 {fill:#ED0049}
    .fil4 {fill:#FF2D59}
   ]]>
  </style></defs>
 <g id="Layer_x0020_1" inkscape:label="Layer 1" inkscape:groupmode="layer">
  <metadata id="CorelCorpID_0Corel-Layer"/>
  
 <g id="g33263" transform="matrix(0.57588066,0,0,0.57588066,214.53974,-60.920828)"><circle style="clip-rule:evenodd;fill:#273839;fill-opacity:1;fill-rule:evenodd;stroke:none;stroke-width:1.02163;stroke-opacity:1;image-rendering:optimizeQuality;shape-rendering:geometricPrecision;text-rendering:geometricPrecision" id="path30523-4" cx="-3.9375" cy="224" r="0.98918635"/><path style="clip-rule:evenodd;fill:#273839;fill-opacity:1;fill-rule:evenodd;stroke:none;stroke-opacity:1;image-rendering:optimizeQuality;shape-rendering:geometricPrecision;text-rendering:geometricPrecision" d="m 115.84375,128.81253 -9.625,-5e-4 v 35.8125 h -2.625 v 2.75 h 14.8125 v -3.0625 h -2.625 z" id="path19053-2" sodipodi:nodetypes="ccccccccc"/><path id="rect22725" style="fill:#273839;fill-opacity:0.5;stroke:none" d="m 227.32001,165.62091 h 21.93125 l -5e-4,2.052 h -21.93125 z" sodipodi:nodetypes="ccccc"/><path id="path4735-7-2" style="clip-rule:evenodd;fill:#273839;fill-opacity:1;fill-rule:evenodd;stroke:none;stroke-width:1.26092;stroke-opacity:1;image-rendering:optimizeQuality;shape-rendering:geometricPrecision;text-rendering:geometricPrecision" d="m 267.96893,186.85176 a 2.9449752,2.9449752 0 0 0 -2.94414,-2.94413 2.9449752,2.9449752 0 0 0 -2.94416,2.94413 2.9449752,2.9449752 0 0 0 2.94416,2.94417 2.9449752,2.9449752 0 0 0 2.94414,-2.94417 z m -1.42458,-0.0391 a 1.4871422,1.5675282 0 0 1 -1.48606,1.56704 1.4871422,1.5675282 0 0 1 -1.48882,-1.56704 1.4871422,1.5675282 0 0 1 1.48882,-1.56984 1.4871422,1.5675282 0 0 1 1.48606,1.56984 z"/><path id="path4735-7" style="clip-rule:evenodd;fill:#273839;fill-opacity:1;fill-rule:evenodd;stroke:none;stroke-width:0.881654;stroke-opacity:1;image-rendering:optimizeQuality;shape-rendering:geometricPrecision;text-rendering:geometricPrecision" d="m 265.16371,248.64644 a 2.0591731,2.0591731 0 0 0 -2.05859,-2.05858 2.0591731,2.0591731 0 0 0 -2.0586,2.05858 2.0591731,2.0591731 0 0 0 2.0586,2.05861 2.0591731,2.0591731 0 0 0 2.05859,-2.05861 z m -0.99609,-0.0273 a 1.0398333,1.0960404 0 0 1 -1.03907,1.0957 1.0398333,1.0960404 0 0 1 -1.04101,-1.0957 1.0398333,1.0960404 0 0 1 1.04101,-1.09766 1.0398333,1.0960404 0 0 1 1.03907,1.09766 z"/><path style="fill:#273839;fill-opacity:1;stroke:none;stroke-opacity:1" d="m 482.116,203.66 7e-5,7.94594 c 9.87768,-0.0625 13.71653,7.03365 13.56005,1.46829 L 495.676,203.66 c 0.33154,-6.31872 -3.63148,0.11441 -13.56,0 z" id="path2357" sodipodi:nodetypes="ccccc"/><path style="clip-rule:evenodd;fill:#273839;fill-opacity:1;fill-rule:evenodd;stroke:none;stroke-opacity:1;image-rendering:optimizeQuality;shape-rendering:geometricPrecision;text-rendering:geometricPrecision" d="m 482.116,262.6724 7e-5,7.94594 c 9.87768,-0.0625 13.71653,7.03365 13.56005,1.46829 l -1.2e-4,-9.41423 c 0.33154,-6.31872 -3.63148,0.11441 -13.56,0 z" id="path2357-7" sodipodi:nodetypes="ccccc"/><path style="fill:#273839;fill-opacity:1;stroke:none;stroke-opacity:1" d="m 481.98537,227.862 v 18.32186 c 13.04919,-0.91609 11.5388,9.02482 12.76418,0 1.46194,-6.20475 0.95829,-12.27846 0,-18.32186 -1.31088,-10.17036 -0.0805,0.91386 -12.76418,0 z" id="path2381" sodipodi:nodetypes="ccccc"/><path style="fill:#273839;fill-opacity:1;stroke:none;stroke-opacity:1" d="m 470.626,191.524 -1.5e-4,9.28288 H 463.419 l -14.41287,15.14602 v 43.11729 l 14.41287,13.98384 h 7.20685 v 8.51799 H 463.419 L 441.92171,261.63524 V 213.50999 L 463.419,191.524 Z" id="path4579" sodipodi:nodetypes="ccccccccccccc"/><path style="fill:#273839;fill-opacity:1;stroke:none;stroke-opacity:1" d="m 474.343,299.35763 c 9.99435,4.37938 11.23524,-5.4887 16.75552,-11.74629 v -10.36437 c 0.42659,-2.55341 -9.06672,-5.91916 -9.50067,-3.62753 -0.41317,1.97348 -4.21046,2.13427 -4.31885,0 v -16.23752 c 3.25953,-2.63983 3.90121,8.28721 13.30131,0 1.11663,-1.43576 1.35046,-4.02807 0,-6.04588 -0.83709,-1.87186 -10.05959,-3.56097 -8.46424,-1.46829 3.49035,4.73364 -2.73231,5.3816 -2.76383,1.38192 l -2.07324,-2.41836 v -25.30634 l 2.50508,-1.81376 c 0.94346,-0.82483 4.78778,-1.6923 2.5911,0.86369 -0.70526,0.70403 -1.07,1.34615 0,1.7274 4.47965,1.41324 10.13736,-1.57225 9.50067,-4.66397 -0.67015,-4.97117 -8.92269,-5.37877 -9.58704,-4.49123 l -3.54116,3.7139 c -1.24204,0.77207 -1.52686,-0.0768 -1.46865,-1.9865 v -15.11471 c -0.19245,-3.06842 1.964,-2.77514 4.66433,-1.98651 2.97889,1.0055 5.90679,1.04237 8.72335,-1.03643 2.04731,-0.67943 1.7109,-11.13048 0.25911,-13.21458 l -7.34144,-9.84615 c -1.32115,-2.26331 -9.50912,-2.61544 -9.24135,0.86369 v 38.52092 h -2.76404 v 4.40486 h 2.76404 v 14.33738 l -2.67767,1.55466 v 4.14575 h 2.67767 v 15.37382 l -2.76404,1.03644 v 3.62753 l 2.76404,1.64102 z" id="path4581" sodipodi:nodetypes="cccccccccccccccccccccccccccccccccccccc"/><path id="rect4649" style="fill:#273839;fill-opacity:1;stroke:none" d="m 409.43106,245.26776 h 29.68131 V 257.238 h -29.68131 z"/><path id="rect4649-3" style="clip-rule:evenodd;fill:#273839;fill-opacity:1;fill-rule:evenodd;stroke:none;stroke-width:0.942566;image-rendering:optimizeQuality;shape-rendering:geometricPrecision;text-rendering:geometricPrecision" d="m 407.87552,222.1699 c 2.5643,-1.2943 4.12834,-3.17208 5.31747,-5.26856 h 25.27629 v 10.31764 h -30.59376 z" sodipodi:nodetypes="cccccc"/><path id="rect4674" style="fill:#273839;fill-opacity:1;stroke:none" d="m 274.82861,304.02161 h 71.51417 v 6.39136 h -71.51417 z"/><rect style="fill:#273839;fill-opacity:1;stroke:none;stroke-opacity:1" id="rect4677" width="89.824562" height="19.00135" x="-254.09987" y="190.18623"/><rect style="fill:#273839;fill-opacity:1;stroke:none;stroke-opacity:1" id="rect4679" width="30.22942" height="19.00135" x="-160.99326" y="190.186"/><path id="path4735" style="fill:#273839;fill-opacity:1;stroke:none;stroke-width:0.881654;stroke-opacity:1" d="m 282.14062,271.28711 a 2.0591731,2.0591731 0 0 0 -2.05859,2.05859 2.0591731,2.0591731 0 0 0 2.05859,2.0586 2.0591731,2.0591731 0 0 0 2.0586,-2.0586 2.0591731,2.0591731 0 0 0 -2.0586,-2.05859 z m -0.0273,0.99609 a 1.0960404,1.0398333 0 0 1 1.0957,1.03907 1.0960404,1.0398333 0 0 1 -1.0957,1.04101 1.0960404,1.0398333 0 0 1 -1.09766,-1.04101 1.0960404,1.0398333 0 0 1 1.09766,-1.03907 z"/><path style="fill:#273839;fill-opacity:1;stroke:none;stroke-opacity:1" d="m -351.698,192.25911 h 5.14056 l 4.83671,16.06478 h 59.11884 l 4.49122,-4.31849 v -10.70985 l -4.66396,-4.31849 h -48.8853 c 0.18232,-4.90344 -1.10379,-4.30502 -5.7054,-4.29306 l -14.33267,-3e-4 v -1.46575 l 2.179,-1.40495 14.71872,2.8e-4 2.74827,1.83428 h 62.5384 c 5.88413,-0.0823 11.15514,2.401 11.05415,7.20448 v 17.83321 c 0.34769,3.14693 -5.95613,5.51476 -8.73339,5.31332 h -79.45552 c -3.82902,0.0862 -5.17572,-1.83531 -5.04963,-3.84758 z" id="path5574" sodipodi:nodetypes="ccccccccccccccccccccc"/><path style="fill:#273839;fill-opacity:1;stroke:none;stroke-opacity:1" d="m -351.69822,186.76 4.4e-4,2.13771 h 17.87467 l -1.08346,-2.13771 z" id="path5576" sodipodi:nodetypes="ccccc"/><path style="fill:#273839;fill-opacity:1;stroke:none;stroke-opacity:1" d="m -342.129,192.31778 8.79446,2.2e-4 4.15295,12.581 -9.77163,-2.5e-4 z" id="path5578" sodipodi:nodetypes="ccccc"/><path style="fill:#273839;fill-opacity:1;stroke:none;stroke-opacity:1" d="m -323.86827,192.318 h 3.48114 l 3.54221,12.581 h -3.17577 z" id="path5580" sodipodi:nodetypes="ccccc"/><path style="clip-rule:evenodd;fill:#273839;fill-opacity:1;fill-rule:evenodd;stroke:none;stroke-opacity:1;image-rendering:optimizeQuality;shape-rendering:geometricPrecision;text-rendering:geometricPrecision" d="m -310.69934,192.31792 3.48114,1.6e-4 3.54221,12.581 -3.17577,-1.6e-4 z" id="path5580-3" sodipodi:nodetypes="ccccc"/><path style="fill:#273839;fill-opacity:1;stroke:none;stroke-opacity:1" d="m -299.31707,192.318 4.15294,12.581 h 10.99308 l 2.62613,-2.62638 v -6.41263 c 0.0297,-1.55224 -0.80844,-3.54096 -2.0154,-3.54199 z" id="path5604" sodipodi:nodetypes="ccccccc"/><path id="path4735-7-0" style="clip-rule:evenodd;fill:#273839;fill-opacity:1;fill-rule:evenodd;stroke:none;stroke-width:1.05167;stroke-opacity:1;image-rendering:optimizeQuality;shape-rendering:geometricPrecision;text-rendering:geometricPrecision" d="m 300.03206,199.24951 a 2.4562568,2.4562568 0 0 0 -2.45556,-2.45555 2.4562568,2.4562568 0 0 0 -2.45557,2.45555 2.4562568,2.4562568 0 0 0 2.45557,2.45558 2.4562568,2.4562568 0 0 0 2.45556,-2.45558 z m -1.18817,-0.0326 a 1.2403511,1.307397 0 0 1 -1.23944,1.307 1.2403511,1.307397 0 0 1 -1.24175,-1.307 1.2403511,1.307397 0 0 1 1.24175,-1.30932 1.2403511,1.307397 0 0 1 1.23944,1.30932 z"/><path id="path6447" style="fill:#273839;fill-opacity:1;stroke:none;stroke-opacity:1" d="m 343.23438,169.45703 v 7.25586 c -0.0445,3.25485 3.30264,7.86514 7.85937,7.85938 h 42.23437 l 11.66016,13.64648 h 37.48438 v -9.75977 l -19.17383,-19.00195 z m 69.57421,17.76758 a 2.7536941,2.7536948 0 0 1 2.75391,2.75391 2.7536941,2.7536948 0 0 1 -2.75391,2.7539 2.7536941,2.7536948 0 0 1 -2.7539,-2.7539 2.7536941,2.7536948 0 0 1 2.7539,-2.75391 z m 17.44336,0 a 2.7536941,2.7536948 0 0 1 2.75196,2.75391 2.7536941,2.7536948 0 0 1 -2.75196,2.7539 2.7536941,2.7536948 0 0 1 -2.7539,-2.7539 2.7536941,2.7536948 0 0 1 2.7539,-2.75391 z"/><path id="path7181" style="fill:#273839;fill-opacity:1;stroke:none;stroke-opacity:1" d="m 263.94531,221.71094 -27.11914,13.82031 28.58789,-8.20508 6.91016,10.44922 c 2.37487,0.54291 5.32257,-0.25291 6.82226,2.33203 l 23.49414,28.9336 c 1.04436,1.85519 0.45415,3.57533 -0.43359,5.26953 l -12.86914,22.36914 h -11.31445 v 3.97265 h 65.81445 V 287.7832 l 62.70508,-29.10547 c 0,0 0.43185,-15.54687 0,-15.54687 h -8.11914 v 2.76367 h -18.74219 v -2.76367 h -9.5 v 17.10156 l -30.66211,13.9043 -5.26758,-8.46289 h -31.35351 l -23.14649,-29.2793 c -5.46444,-1.68731 -6.82082,-5.91506 -8.63672,-9.32812 l 6.04493,-3.28321 H 329.5 l 9.07031,6.47852 h 65.20899 v -5.87305 h -63.22266 c -3.53167,-0.49309 -7.10651,-0.9198 -9.84766,-2.67773 z m 106.32227,42.0625 10.53711,3.54101 -32.73438,14.25196 0.25977,-7.51563 z m -58.21289,10.1914 h 17.35937 l 7.07032,14.63477 c 1.70414,3.42299 0.31781,4.87902 -2.8379,4.91601 h -25.16992 c -4.68709,-0.41381 -4.0708,-3.46311 -3.16015,-5.47265 z"/><path id="path7948" style="fill:#273839;fill-opacity:1;stroke:none;stroke-opacity:1" d="m 258.16016,212.29688 -7.42774,8.29101 H 196.4043 l -0.79297,-1.37305 h -9.13867 l -5.26368,5.26563 H 140.4375 l -4.92383,4.22656 h 7.25586 l 2.84961,-2.67773 h 45.25781 c 2.23315,-0.1151 3.33841,0.93873 3.23828,3.24023 V 267.486 l 10.66797,3.3e-4 c -2.41588,-1.62703 -0.0937,-5.07506 2.41797,-2.11328 h 39.55664 c 2.32623,0.003 4.27112,-1.80028 6.39258,-2.46289 1.67763,-0.55621 3.35865,-0.94508 4.57617,0 l 20.21094,28.67382 h 10.71094 l 10.70898,-18.31054 v -3.75977 L 275.7793,240.53906 h -4.66407 l -6.56445,-9.75976 -26.16992,8.46484 3.68945,4.46484 2.23828,-0.0762 5.69922,7.34571 0.29102,2.68945 c 3.079,1.85553 0.67517,2.84974 -0.34375,4.31836 -3.4033,4.06506 -7.34786,5.34944 -11.57422,5.18164 h -28.41602 c -3.46469,-0.0544 -3.18285,-1.33995 -4.40429,-3.45313 l -8.55078,-16.58398 c -2.82461,0.014 -3.515,-6.55769 0,-8.89648 l 1.8125,-1.29493 h 23.0625 c 1.73976,-0.0303 3.17296,0.44782 2.93554,3.71289 v 9.50196 c 2.63752,1.71904 0.35036,3.56173 0,5.35547 v 3.45312 h 3.10938 l 3.28125,-18.22266 c 0.31244,-1.72155 0.48212,-3.23369 2.36914,-4.10156 l 30.45312,-14.55469 22.3688,5e-5 3.4e-4,-4.75 c -1.30065,0.14435 -2.21032,-0.18158 -2.67773,-1.03712 z m -45.89454,9.33984 c 2.46379,-1.9e-4 4.46113,1.99715 4.46094,4.46094 1.8e-4,2.46375 -1.99716,4.46112 -4.46094,4.46093 -0.81825,-0.0138 -1.89379,-0.96613 -2.89062,-0.74609 l -7.75,1.375 -1.19922,-4.75 7.44922,-1.625 c 0.32541,-0.88323 2.25142,-2.80262 4.39062,-3.17578 z m 51.00391,21.83789 c 2.93445,4.7e-4 5.31293,2.44803 5.3125,5.4668 -8.4e-4,1.80657 -0.86933,3.49602 -2.32031,4.51367 -0.55066,1.10655 -1.68002,1.80626 -2.91602,1.80664 -1.17197,-0.003 -2.25189,-0.63572 -2.82812,-1.65625 -1.58626,-0.98844 -2.55676,-2.75621 -2.56055,-4.66406 -4.3e-4,-3.01877 2.37805,-5.46633 5.3125,-5.4668 z m 19.29883,24.41601 c 1.80657,8.4e-4 3.49603,0.86933 4.51367,2.32032 1.10655,0.55066 1.80625,1.68002 1.80664,2.91601 -0.003,1.17198 -0.63571,2.2519 -1.65625,2.82813 -0.98844,1.58626 -2.75621,2.55675 -4.66406,2.56054 -3.01877,4.3e-4 -5.46633,-2.37805 -5.4668,-5.3125 4.7e-4,-2.93445 2.44803,-5.31293 5.4668,-5.3125 z" sodipodi:nodetypes="cccccccccccccccccccccccccccccccccccccccccccccccccccccccccccccccccccccccc"/><ellipse style="fill:#273839;fill-opacity:1;stroke:none;stroke-width:1.06255;stroke-opacity:1" id="path7955" cx="212.0625" cy="225.875" rx="1.468724" ry="1.4687229"/><path id="rect11698" style="fill:#273839;fill-opacity:1;stroke:none" d="m 302.125,184.25 h 12.4375 v 8.375 H 302.125 Z"/><path id="rect11693" style="fill:#273839;fill-opacity:1;stroke:none" d="m 283.25,183.1875 h 15.4375 V 193 H 288.094 c 0.0181,-2.94311 -2.98622,-6.26946 -4.844,-8.4375 z" sodipodi:nodetypes="cccccc"/><path style="fill:#273839;fill-opacity:1;stroke:none;stroke-opacity:1" d="M 293.44931,196.4873 H 288.094 v 13.6118 h 18.61357 l 2.74003,-2.74004 v -12.19759 h -8.92722 c 9.47988,10.84041 -13.04824,13.7561 -7.07107,1.32583 z" id="path12434" sodipodi:nodetypes="cccccccc"/><path style="fill:#273839;fill-opacity:1;stroke:none;stroke-opacity:1" d="m 276.8765,181.77064 h 1.5026 c 3.03678,3.11337 3.88909,10.45928 4.11006,12.24178 h -1.41421 c -0.69261,-4.1395 -2.09163,-8.22013 -4.19845,-12.24178 z" id="path12436" sodipodi:nodetypes="ccccc"/><path id="path12438" style="fill:#273839;fill-opacity:1;stroke:none;stroke-opacity:1" d="m 264.81055,176.51172 -11.75391,14.84961 6.18536,16.43967 23.336,-2.2e-4 -8.04284,-23.77539 c -1.0171,-2.72672 -3.71985,-5.28572 -9.72461,-7.51367 z M 265,182.00977 c 2.75591,2.8e-4 4.98995,2.23432 4.99023,4.99023 -2.8e-4,2.75591 -2.23432,4.98995 -4.99023,4.99023 -2.75591,-2.8e-4 -4.98995,-2.23432 -4.99023,-4.99023 2.8e-4,-2.75591 2.23432,-4.98995 4.99023,-4.99023 z" sodipodi:nodetypes="ccccccccccc"/><path id="rect12443" style="fill:#273839;fill-opacity:1;stroke:none" d="m 259.242,207.801 h 23.336 v 2.23025 h -23.336 z" sodipodi:nodetypes="ccccc"/><path style="fill:#273839;fill-opacity:1;stroke:none;stroke-opacity:1" d="m 289.9375,213.334 v 4.75 h 34.9375 c 5.42787,0.23131 10.27744,1.27226 14.875,2.666 h 38.625 l -7.34375,-7.416 z" id="path13174" sodipodi:nodetypes="ccccccc"/><path style="fill:#273839;fill-opacity:1;stroke:none;stroke-opacity:1" d="m 376.2692,213.334 h 25.10229 c 4.29656,0.19836 5.16108,-1.83187 4.94974,-4.56072 v -6.71752 h 5.92202 v 7.77818 c -0.87764,7.0065 -5.32006,9.71069 -11.00435,10.91606 h -18.60574 z" id="path15360" sodipodi:nodetypes="ccccccccc"/><path style="fill:#273839;fill-opacity:1;stroke:none;stroke-opacity:1" d="m 261.85048,165.684 v 1.67934 c 3.92537,2.0824 4.89353,6.6556 8.52947,8.17592 h 1.37002 c 0.64888,-3.19682 -4.10275,-4.58556 -7.86656,-8.04334 V 165.684 Z" id="path16859" sodipodi:nodetypes="ccccccc"/><path style="fill:#273839;fill-opacity:1;stroke:none;stroke-opacity:1" d="m 257.9172,168.15883 v 0.66291 c 2.19772,0.15221 3.46654,1.49871 4.5078,3.13779 -0.23735,-2.01117 -1.44367,-3.45235 -4.5078,-3.8007 z" id="path16861" sodipodi:nodetypes="cccc"/><path style="fill:#273839;fill-opacity:1;stroke:none;stroke-opacity:1" d="m 227.438,133.8125 h 10.937 c 1.03353,0.39348 1.33815,1.34436 1.375,2.5 v 19.125 h -10.0625 c -0.16525,-1.05025 -1.02604,-1.83002 -2.2495,-2.46875 z" id="path16863" sodipodi:nodetypes="ccccccc"/><path style="fill:#273839;fill-opacity:1;stroke:none;stroke-opacity:1" d="m 242.317,135.05739 h 2.03259 c 0.028,-1.33088 3.53363,-1.22654 3.57972,0 0.86178,0.0368 1.28164,0.45667 1.25954,1.25954 v 17.39041 l -1.49155,1.49155 c -0.16675,1.2117 -2.89239,1.32658 -3.17094,0 H 242.317 Z" id="path16865" sodipodi:nodetypes="ccccccccc"/><path style="fill:#273839;fill-opacity:1;stroke:none;stroke-opacity:1" d="M 252.5,153.625 V 137.25 c 1.54167,-1.58677 3.08333,-2.32989 4.625,-2.25 v 20.8125 c -1.48247,0.0404 -2.97863,-0.0972 -4.625,-2.1875 z" id="path19051" sodipodi:nodetypes="ccccc"/><path style="fill:#273839;fill-opacity:1;stroke:none;stroke-opacity:1" d="m 221.25,132.188 -9.625,-5e-4 V 164.625 H 209 v 2.75 h 14.8125 v -3.0625 h -2.625 z" id="path19053" sodipodi:nodetypes="ccccccccc"/><path style="fill:#273839;fill-opacity:1;stroke:none;stroke-opacity:1" d="m 224.625,132.188 h 0.75 v 24.28075 L 257,165.875 v 1.6875 c -1.05407,0.0213 -2.113,0.0183 -2.9375,1.1875 L 245.875,179.5 H 54.1875 v -1.30909 c 1.945127,-1.84 1.450281,-4.37333 0,-5.75341 l 5e-4,-4.9375 h 45.558 c -0.143253,3.75752 0.146627,3.85022 3.879,3.854 h 14.5625 c 3.82297,0.0244 4.083,-0.004 4.1865,-3.854 h 12.109 l 7.95482,10.46994 h 39.37701 L 189.25,167.5 h 17.314 c 0.0248,2.82766 -0.0812,3.81932 3.47814,3.854 l 13.58038,-4.2e-4 c 3.00398,0.0213 3.77978,-0.45236 3.69648,-3.85358 h 20.38934 c 1.09143,0.14519 1.31919,-3.04399 0,-3.31864 l -21.65514,-6.14299 c -0.79101,-0.18809 -0.81823,0.83315 -0.92808,1.72357 l -0.50012,6e-5 z" id="path19783" sodipodi:nodetypes="ccccccccccccccccccccccccccccc"/><path id="rect19785" style="fill:#273839;fill-opacity:0.5;stroke:none;stroke-width:1.14583" d="m 54.188762,165.62082 45.558,9e-5 v 2.052 h -45.558 z" sodipodi:nodetypes="ccccc"/><path id="rect19785-1" style="clip-rule:evenodd;fill:#273839;fill-opacity:0.5;fill-rule:evenodd;stroke:none;stroke-width:0.673171;image-rendering:optimizeQuality;shape-rendering:geometricPrecision;text-rendering:geometricPrecision" d="m 122.37476,165.62091 h 12.109 v 2.052 h -12.109 z" sodipodi:nodetypes="ccccc"/><path id="rect22722" style="fill:#273839;fill-opacity:0.5;stroke:none" d="m 189.25076,165.62091 h 17.314 v 2.052 h -17.314 z" sodipodi:nodetypes="ccccc"/><path style="color:#000000;clip-rule:nonzero;fill:#273839;fill-opacity:1;fill-rule:nonzero;stroke:none;shape-rendering:auto" d="m 46.625,169.875 c -2.962686,0 -5.374998,2.41231 -5.375,5.375 2e-6,2.96269 2.412314,5.375 5.375,5.375 2.962686,0 5.374998,-2.41231 5.375,-5.375 -2e-6,-2.96269 -2.412314,-5.375 -5.375,-5.375 z m 0,0.98633 c 2.429697,0 4.38867,1.95897 4.388672,4.38867 -2e-6,2.4297 -1.958975,4.38867 -4.388672,4.38867 -2.429697,0 -4.38867,-1.95897 -4.388672,-4.38867 2e-6,-2.4297 1.958975,-4.38867 4.388672,-4.38867 z" id="path23456"/><ellipse style="fill:#273839;fill-opacity:1;stroke:none;stroke-width:1.02027;stroke-opacity:1" id="path23459" cx="152.05048" cy="137.42221" rx="3.9898682" ry="3.9898665"/><path style="fill:#273839;fill-opacity:1;stroke:none;stroke-opacity:1" d="m 146,141.875 c 3.60339,3.69552 7.33461,4.09607 11.188,1.125 h 1.25 l -5e-4,0.6875 h -1.2495 c -5.55085,4.68425 -9.61444,1.72852 -11.188,-1.8125 z" id="path23461" sodipodi:nodetypes="cccccc"/><path style="fill:#273839;fill-opacity:1;stroke:none;stroke-opacity:1" d="m 147.375,148.125 c 4.54358,3.69526 8.59854,1.85294 12.4375,-2.4375 h 1.125 l 4,4.4375 v 2.5625 l -1.5625,1.4375 h -16 z" id="path23463" sodipodi:nodetypes="cccccccc"/><path style="fill:#273839;fill-opacity:1;stroke:none;stroke-opacity:1" d="m 156.625,132.3125 h 6.3125 l 9.75,9 -5.0625,7.0625 -5.5625,-5.0625 c -0.93953,-4.03702 0.54409,-9.10204 -5.4375,-11 z" id="path24193" sodipodi:nodetypes="cccccc"/><path style="fill:#273839;fill-opacity:1;stroke:none;stroke-opacity:1" d="m 170.4375,133.875 h 11.75 l -6.5,5.0625 z" id="path24195"/><path style="fill:#273839;fill-opacity:1;stroke:none;stroke-opacity:1" d="m 166.125,158.125 6.6875,0.0625 c 5.9707,-8.31633 12.74733,-15.5245 21.375,-20.1875 l 4.3125,-4.375 c -2.41734,-0.97782 -6.86432,-2.08386 -10.3125,0 -5.68096,2.75048 -22.76185,18.36279 -22.0625,24.5 z" id="path24197" sodipodi:nodetypes="cccccc"/><path style="fill:#273839;fill-opacity:1;stroke:none;stroke-opacity:1" d="m 176.6875,158.0625 c 3.30512,1.29922 6.84215,1.05234 10.5,0 L 181.75,152.625 Z" id="path24199" sodipodi:nodetypes="cccc"/><path style="fill:#273839;fill-opacity:1;stroke:none;stroke-opacity:1" d="m 184.55487,149.90664 c 4.80827,-4.91445 9.85935,-9.58609 16.52862,-12.63954 v 18.208 h -12.1092 z" id="path24201" sodipodi:nodetypes="ccccc"/><path style="fill:#273839;fill-opacity:1;stroke:none;stroke-opacity:1" d="m 204.25,135.5625 c 1.42762,-1.18536 2.98934,-1.83431 4.75,-1.6875 v 23.0625 c -1.58333,-0.10836 -3.16667,-0.74708 -4.75,-2.1875 z" id="path24203" sodipodi:nodetypes="ccccc"/><path style="fill:#273839;fill-opacity:1;stroke:none;stroke-opacity:1" d="m 136.75,155.625 h 7.125 c -0.11945,-3.3909 -0.37953,-7.93889 1.25,-9.625 -2.86286,-4.55652 -0.75425,-7.4136 0,-10.75 0.1238,-1.82287 -5.72045,-1.19482 -5.875,0 -1.88302,6.88006 0.79676,13.58333 -2.5,20.375 z" id="path24205" sodipodi:nodetypes="cccccc"/><path id="rect24229" style="fill:#273839;fill-opacity:1;stroke:none" d="M 44.375,130.75 H 55.75 v 28.5 H 44.375 Z"/><path style="fill:#273839;fill-opacity:1;stroke:none;stroke-opacity:1" d="m 59.1875,160.6875 v -30.875 c -0.142809,-1.186 4.779836,-3.19137 5.8125,-1.5 l 5.357125,20.26831 c 0.665088,3.78798 -1.235702,10.99712 2.563262,10.6066 v 1.76777 c -4.945939,1.0157 -9.720745,1.51801 -13.732887,-0.26768 z" id="path24240" sodipodi:nodetypes="ccccccc"/><path style="fill:#273839;fill-opacity:1;stroke:none;stroke-opacity:1" d="m 67.125,126.75 c 4.443224,0.14048 10.050824,-1.38341 13,3.375 L 76.25,149.5 75.875,159.625 75,149.375 c -0.706219,-8.60766 -5.222681,-15.09851 -7.875,-22.625 z" id="path24242" sodipodi:nodetypes="cccccc"/><path style="fill:#273839;fill-opacity:1;stroke:none;stroke-opacity:1" d="m 78.75,160.625 c 0.121492,2.47235 12.87423,2.11208 13.125,0 0.255615,-10.79167 -1.238131,-21.58333 4,-32.375 0.696689,-1.42077 -10.589462,-1.2561 -11,0 -5.491311,11.10527 -4.103212,21.58514 -6.125,32.375 z" id="path24244" sodipodi:nodetypes="ccccc"/><path style="fill:#273839;fill-opacity:1;stroke:none;stroke-opacity:1" d="m 102.354,130.992 -2.9e-4,28.10703 h -7.15946 v -10.78338 c -0.184824,-5.50938 1.479882,-11.5491 3.535534,-17.32365 z" id="path24246" sodipodi:nodetypes="cccccc"/><path style="fill:#273839;fill-opacity:1;stroke:none;stroke-opacity:1" d="m 119.23588,130.99153 v 28.46105 h 5.56847 c 2.57899,-2.7901 6.24565,-3.94869 9.72271,-5.39169 0.0154,-3.74412 -0.21817,-7.52973 1.14905,-11.04854 v -6.80591 l -10.69499,-5.3033 z" id="path24248" sodipodi:nodetypes="cccccccc"/><path style="fill:#273839;fill-opacity:1;stroke:none;stroke-opacity:1" d="m 169.875,131.375 h 16.5 c -0.86188,-1.34018 -1.48731,-3.01813 -3.125,-3.25 h -10.625 c -1.47416,0.44619 -2.07259,1.89324 -2.75,3.25 z" id="path24250" sodipodi:nodetypes="ccccc"/><path id="rect24252" style="fill:#273839;fill-opacity:1;stroke:none" d="m 90.509666,190.565 29.875264,2.8e-4 v 23.68808 H 90.509666 Z" sodipodi:nodetypes="ccccc"/><path id="rect24254" style="fill:#273839;fill-opacity:1;stroke:none" d="m 80.786949,190.565 h 6.894291 v 23.15775 h -6.894291 z"/><path style="fill:#273839;fill-opacity:1;stroke:none;stroke-opacity:1" d="m 123.21336,190.565 v 21.0367 h 10.25304 c 1.5026,-3.21144 3.83016,-5.539 6.98268,-6.98268 h 43.57546 c 2.28023,-0.0565 5.61611,1.81801 5.85046,5.19348 l 3,1.7495 v -3.187 l -6.375,-17.81 z" id="path24256" sodipodi:nodetypes="cccccccccc"/><path style="fill:#273839;fill-opacity:1;stroke:none;stroke-opacity:1" d="m 190,190.565 h 5.25 c 1.68568,4.46165 3.03943,12.96218 5.41737,12.91268 L 202.25,207.25 v 4.312 h -5.625 z" id="path24260" sodipodi:nodetypes="ccccccc"/><path style="fill:#273839;fill-opacity:1;stroke:none;stroke-opacity:1" d="m 198.375,190.565 1,4.56 c 1.46896,0.0136 2.24637,0.54303 2.75,2.25 l 4.5,14.187 h 42.75 l -6,-18.437 c -1.66421,0.12617 -2.23142,-0.923 -2.25,-2.56 z" id="path24262" sodipodi:nodetypes="cccccccc"/><path style="fill:#273839;fill-opacity:1;stroke:none;stroke-opacity:1" d="m 246.125,190.565 h 4.25 l 5.125,16.185 v 4.812 h -2.875 c -0.0337,-1.28255 -0.68742,-1.6352 -1.375,-1.937 v -3.75 z" id="path24264" sodipodi:nodetypes="cccccccc"/><path style="fill:#273839;fill-opacity:1;stroke:none;stroke-opacity:1" d="m 196.625,213.875 v 3 h 4.625 c -4.21151,0.0102 -4.43735,-3.00131 0,-3 z" id="path24266" sodipodi:nodetypes="ccccc"/><path style="fill:#273839;fill-opacity:1;stroke:none;stroke-opacity:1" d="m 202.8125,213.875 c 3.21827,0.0338 3.10147,2.96577 0,3 h 42.3125 c -2.15545,-0.0937 -2.24602,-2.96875 0,-3 z" id="path24268" sodipodi:nodetypes="ccccc"/><path style="fill:#273839;fill-opacity:1;stroke:none;stroke-opacity:1" d="m 247.25,213.875 h 5.8125 l -2.90625,3 H 247.25 c 2.3615,0.11109 2.43452,-2.98512 0,-3 z" id="path24270" sodipodi:nodetypes="ccccc"/><path style="fill:#273839;fill-opacity:1;stroke:none;stroke-opacity:1" d="m 185.3125,210.438 v -2.0005 h -45.875 v 2.0005 l -7.375,5.937 h -10 l -1.875,1.4375 h -44.75 l -1.625,3.875 -10.4375,5e-4 v 7.124 l 67.125,5e-4 9.3125,-8.0625 h 40.625 l 6.125,-5.438 h 5.3125 z" id="path24272" sodipodi:nodetypes="ccccccccccccccccc"/><rect style="fill:#273839;fill-opacity:1;stroke:none;stroke-opacity:1" id="rect24274" width="4.5625" height="1.5625" x="169.9375" y="240.375"/><path id="path24284" style="fill:#273839;fill-opacity:1;stroke:none;stroke-opacity:1" d="m 112.25,231.375 v 21.75 H 164 l 22.25,14.36133 4.375,-3.3e-4 v -36.111 z m 50,6.625 h 14.3125 v 6.4375 H 162.25 Z m 20.5,1.5625 c 2.42375,0 4.375,1.95125 4.375,4.375 V 254.25 c 0,2.42375 -1.95125,4.375 -4.375,4.375 -2.42375,0 -4.375,-1.95125 -4.375,-4.375 v -10.3125 c 0,-2.42375 1.95125,-4.375 4.375,-4.375 z" sodipodi:nodetypes="ccccccccccccsssssss"/><path id="path24286" style="fill:#273839;fill-opacity:1;stroke:none;stroke-opacity:1" d="m 35.375,177.75 v 6 l 8.125,7.0625 v 18.8125 l -8.375,7.125 v 6.0625 l 20.25,28 v 2.3125 h 53.5 v -21.75 H 62.6875 c -4.633279,-0.0449 -9.143703,2.01965 -12.8125,3.5625 H 45.5625 L 35.75,222.375 v -1.625 c 0.404062,-1.64688 0.999549,-1.3795 1.5625,-1.4375 l 13,-5e-4 V 184.5 c -7.253639,0.8304 -9.981085,-2.57022 -11.875,-6.75 z m 27,59.59375 c 2.226474,-1.8e-4 4.031433,1.80478 4.03125,4.03125 1.83e-4,2.22647 -1.804776,4.03143 -4.03125,4.03125 -2.226474,1.8e-4 -4.031433,-1.80478 -4.03125,-4.03125 -1.83e-4,-2.22647 1.804776,-4.03143 4.03125,-4.03125 z" sodipodi:nodetypes="ccccccccccccccccccccccccc"/><path style="fill:#273839;fill-opacity:1;stroke:none;stroke-opacity:1" d="M 59.75,221.688 H 40.8125 v 2.437 l 6.0625,7.9375 c 5.070979,-2.51003 8.825387,-3.1851 13,-3.2505 z" id="path25021" sodipodi:nodetypes="cccccc"/><path id="path25023" style="fill:#273839;fill-opacity:1;stroke:none;stroke-opacity:1" d="m 256.50391,170.41211 -9.90039,12.72851 H 53.208984 v 36.17188 h 17.148438 c 0.272198,-2.55321 -0.338343,-4.67624 2.828125,-4.79492 l 4.773437,-23.33399 c 0.385341,-1.88135 1.355563,-2.69098 2.740235,-2.74023 H 251.73047 l 10.7832,-13.61133 z M 62.087891,195.5625 a 3.6507359,3.6507356 0 0 1 3.65039,3.65039 3.6507359,3.6507356 0 0 1 -3.65039,3.65039 3.6507359,3.6507356 0 0 1 -3.650391,-3.65039 3.6507359,3.6507356 0 0 1 3.650391,-3.65039 z"/><path style="fill:#273839;fill-opacity:1;stroke:none;stroke-opacity:1" d="m 121.976,257.21 22.09701,9e-5 v 11.22532 c 0.535,4.62578 3.41462,7.97269 5.65685,11.66726 h 17.85445 c 3.76277,-3.29241 8.015,-6.3589 7.60139,-11.57887 v -4.06586 l 9.45756,6.45234 h 5.98174 v 9.8995 h -68.649 v -12.81631 c -2.15511,-1.30496 -2.11459,-4.58747 0,-5.83363 z" id="path26656" sodipodi:nodetypes="cccccccccccccc"/><path style="fill:#273839;fill-opacity:1;stroke:none;stroke-opacity:1" d="m 110.04349,284.876 v 6.71716 l 10.51822,-1.6e-4 c 3.67469,0.0157 3.65297,1.76966 3.53553,3.88925 h 7.77817 c 0.0495,-2.19384 0.21656,-3.94222 4.86136,-3.88925 h 51.26525 c 2.22353,-1.95219 3.90455,-4.17564 4.94974,-6.717 z" id="path28929" sodipodi:nodetypes="ccccccccc"/><path style="fill:#273839;fill-opacity:1;stroke:none;stroke-opacity:1" d="M 169.1875,260.875 164,257.625 h -16.5625 v 1.875 c 2.2817,-0.0811 3.56695,0.5852 4.9375,1.1875 z" id="path28931" sodipodi:nodetypes="cccccc"/><path style="fill:#273839;fill-opacity:1;stroke:none;stroke-opacity:1" d="m 152.625,264.3125 h 20.125 v 5.9375 h -20.125 c -2.07479,-0.008 -3.63071,-0.742 -5.125,-1.5625 v -3 c 1.66095,-0.83738 3.3471,-1.47318 5.125,-1.375 z" id="path28933" sodipodi:nodetypes="ccccccc"/><path style="fill:#273839;fill-opacity:1;stroke:none;stroke-opacity:1" d="m 170.45693,273.562 -2.87262,3.2703 h -16.04249 c -0.32987,-1.33633 -1.26157,-2.40518 -2.65165,-3.2703 7.18928,-4e-4 14.3781,0.0874 21.56676,0 z" id="path28935" sodipodi:nodetypes="ccccc"/><path style="color:#000000;clip-rule:nonzero;fill:#273839;fill-opacity:1;fill-rule:nonzero;stroke:none;shape-rendering:auto" d="m -5.375,243.5 c -2.8268067,0 -5,2.83258 -5,6.1875 0,3.35492 2.1731933,6.1875 5,6.1875 2.8268067,0 5,-2.83258 5,-6.1875 0,-3.35492 -2.1731933,-6.1875 -5,-6.1875 z m 0,1 c 2.1437511,0 4,2.26018 4,5.1875 0,2.92732 -1.8562489,5.1875 -4,5.1875 -2.1437511,0 -4,-2.26018 -4,-5.1875 0,-2.92732 1.8562489,-5.1875 4,-5.1875 z" id="path28937"/><path style="fill:#273839;fill-opacity:1;stroke:none;stroke-opacity:1" d="m -4.331029,258.91157 c 0.475085,-0.33356 0.9037869,-0.69363 0.9722718,-1.25954 3.54913616,-0.1417 7.861549,-3.2839 5.4800775,-10.69499 H 48.967144 c 2.087185,4.36212 4.553134,8.59798 8.131728,12.46296 H -3.6239222 Z" id="path28939" sodipodi:nodetypes="ccccccc"/><path style="fill:#273839;fill-opacity:1;stroke:none;stroke-opacity:1" d="m -10.75,255.375 c -1.762285,-0.97166 -4.327919,-1.45238 -4.125,-3.625 v -4.3125 c -0.08239,-1.52008 0.307754,-2.66213 2.5625,-2.3125 1.824747,-6.08907 10.9893796,-5.94886 13.25,-1.625 h 45.625 L 42.25,237.4375 h -69.375 c 0.894357,1.07098 1.344998,2.18633 1.0625,3.375 -0.74057,4.83477 -6.463806,9.43228 -1,14.5625 z" id="path28941" sodipodi:nodetypes="ccccccccccc"/><path id="path30497" style="fill:#273839;fill-opacity:1;stroke:none;stroke-opacity:1" d="m -8.3085938,220.44141 -3.1816402,3.09179 v 4.24414 h 39.15625 v -7.33593 z m 32.3320318,0.41211 a 3.2789109,3.2789109 0 0 1 3.277343,3.27929 3.2789109,3.2789109 0 0 1 -3.277343,3.2793 3.2789109,3.2789109 0 0 1 -3.279297,-3.2793 3.2789109,3.2789109 0 0 1 3.279297,-3.27929 z M -4,221.0332 a 3.2789109,3.2789109 0 0 1 3.27929688,3.2793 A 3.2789109,3.2789109 0 0 1 -4,227.5918 3.2789109,3.2789109 0 0 1 -7.2792969,224.3125 3.2789109,3.2789109 0 0 1 -4,221.0332 Z"/><circle style="fill:#273839;fill-opacity:1;stroke:none;stroke-width:1.02163;stroke-opacity:1" id="path30523" cx="24.0625" cy="224" r="0.98918635"/><path style="fill:#273839;fill-opacity:1;stroke:none;stroke-opacity:1" d="m 32.875,222.8125 v 5.875 c 0.183123,2.4861 -2.441062,2.53151 -4.34397,2.50799 H -14.5625 c -1.498597,-0.0381 -1.763119,-1.45835 -1.805564,-3.12733 V 223.75 c -0.136738,-1.25039 0.784575,-1.67785 1.680564,-2.125 h -65.875 V 239.5 h 3.1875 c 0.500795,-5.96157 5.373029,-5.28336 9.100621,-5.25425 H 39.9375 l -6.5,-9.49575 c -0.614998,-0.58476 -0.492195,-1.27492 -0.5625,-1.9375 z" id="path30647" sodipodi:nodetypes="cccccccccccccc"/><path id="path31475" style="fill:#273839;fill-opacity:1;stroke:none;stroke-opacity:1" d="m 19.445312,177.48438 -2.828312,3.44726 1.88e-4,35.97236 13.876953,3e-4 1.060547,1.5039 v -2.82812 l 8.396484,-8.48633 v -15.73242 l -8.042969,-6.36524 v -7.51171 z m 11.998047,17.96093 c 2.662389,-1.7e-4 4.820691,1.66491 4.820313,3.71875 3.78e-4,2.05384 -2.157924,3.71892 -4.820313,3.71875 -2.661625,-6.6e-4 -4.818737,-1.6655 -4.818359,-3.71875 -3.78e-4,-2.05325 2.156734,-3.71809 4.818359,-3.71875 z" sodipodi:nodetypes="cccccccccccccccc"/><path style="fill:#273839;fill-opacity:1;stroke:none;stroke-opacity:1" d="m 16.617,176.68831 c 1.298889,-2.24963 2.588436,-3.9416 5.276232,-3.90531 h 13.959494 c 1.384568,-0.0243 2.031398,0.82336 2.507817,1.87237 0.288484,-2.07564 0.904154,-3.8942 2.828427,-4.68458 -0.164959,-0.78415 -0.689769,-1.33697 -1.679379,-1.59099 L 27.754,168.38 c -1.453937,0.058 -1.047825,-1.59469 -0.972331,-2.56346 -0.139392,-1.63614 -7.485583,-1.54621 -7.424669,0 l 4.8e-5,2.56346 -2.740048,2.58007 z" id="path32208" sodipodi:nodetypes="cccccccccccc"/><path style="color:#000000;clip-rule:nonzero;fill:#273839;fill-opacity:1;fill-rule:nonzero;stroke:none;shape-rendering:auto" d="m 11.947266,181.56445 -0.736328,0.67774 c 0.752336,0.81906 1.312241,1.60522 1.283203,3.00976 l -0.002,0.004 v 29.97851 l 0.002,0.008 c 0.01585,0.46295 -0.07327,0.61942 -0.195313,0.76562 -0.122043,0.14621 -0.346876,0.27872 -0.617187,0.52735 l 0.677734,0.73632 c 0.161791,-0.14881 0.441529,-0.30302 0.707031,-0.62109 0.265502,-0.31807 0.44767,-0.80214 0.425782,-1.44141 v -29.9375 c 0.0351,-1.69787 -0.731124,-2.82105 -1.544922,-3.70703 z" id="path32210"/><path id="path32212" style="fill:#273839;fill-opacity:1;stroke:none;stroke-opacity:1" d="m -121.79492,181.88281 c -1.3898,9.1e-4 -2.62221,0.17039 -2.83203,1.43555 L -81,207.5625 c 1.675671,0.95927 3.509738,1.81295 3.25,4.0625 v 6.5 h 66.875 c 0.450526,-1.3006 1.9472969,-1.2137 3.25,-1.2207 H 9.1035156 V 181.90234 H -120.38477 c -0.46599,-0.003 -0.94689,-0.0198 -1.41015,-0.0195 z m 100.85742,2.80469 h 13.75 c 3.1577565,0.96687 11.134529,12.05644 10.8125,19.875 v 3.75 c -0.086445,4.96807 -3.27454559,6.69644 -6.75,6.625 h -25.5 c -7.232254,-0.54142 -7.31044,-10.51182 -4.75,-15.375 3.078994,-6.30965 9.056819,-14.09331 12.4375,-14.875 z m -69.748047,0.13281 h 51.707031 c 2.854326,0.16477 5.191259,2.44837 5.125,5.56836 -0.095,2.69005 -0.09008,5.06778 -1.414062,7.60156 l -9.986328,14.4961 c -1.542722,3.14148 -14.390692,4.03303 -19.09375,0 l -5.03711,-2.1211 v -1.76953 l -21.300781,-11.49023 c -4.494532,-2.24695 -3.510135,-11.95264 0,-12.28516 z"/><path style="fill:#273839;fill-opacity:1;stroke:none;stroke-opacity:1" d="m -87.504,188.17879 h 47.198914 c 4.26997,-0.19301 3.501723,6.09607 2.135173,7.96858 l -8.322358,11.83041 c -1.056738,1.48791 -1.686372,2.96786 -2.919522,3.14222 h -10.711006 c -2.346205,-0.55208 -1.171752,-2.68233 -2.986481,-3.14222 L -87.504,195.16147 c -3.780094,-2.41819 -2.687367,-6.87478 0,-6.98268 z" id="path32948" sodipodi:nodetypes="ccccccccc"/><path style="fill:#273839;fill-opacity:1;stroke:none;stroke-opacity:1" d="m -29.610096,211.51332 h 27.4887757 c 2.77934567,-1.96047 2.59058316,-10.29595 0,-14.31892 l -6.098796,-9.89949 H -20.417708 l -7.424621,9.28077 c -3.545703,3.88068 -5.291043,10.5581 -1.767767,14.93764 z" id="path32952" sodipodi:nodetypes="ccccccc"/><path style="fill:#273839;fill-opacity:1;stroke:none;stroke-opacity:1" d="m -124.71596,187.29491 38.448933,21.83192 -0.08839,1.23744 5.079893,2.93287 v 0.86783 h -39.374566 c -3.67557,0.005 -6.77355,-1.75463 -6.71752,-4.94975 v -19.0035 c -0.0527,-2.28775 1.53902,-3.63869 2.65165,-2.91681 z" id="path32956" sodipodi:nodetypes="ccccccccc"/></g></g>
</svg>