<?xml version="1.0" encoding="UTF-8" standalone="no"?>
<svg xmlns:dc="http://purl.org/dc/elements/1.1/" xmlns:cc="http://creativecommons.org/ns#" xmlns:rdf="http://www.w3.org/1999/02/22-rdf-syntax-ns#" xmlns:svg="http://www.w3.org/2000/svg" xmlns="http://www.w3.org/2000/svg" xmlns:sodipodi="http://sodipodi.sourceforge.net/DTD/sodipodi-0.dtd" xmlns:inkscape="http://www.inkscape.org/namespaces/inkscape" width="331.65701" height="128" viewBox="0 0 87.750914 33.866667" version="1.1" id="svg8" inkscape:version="1.0.1 (3bc2e813f5, 2020-09-07)" sodipodi:docname="SHEILA.svg">
  <defs id="defs2"/>
  <sodipodi:namedview id="base" pagecolor="#ffffff" bordercolor="#666666" borderopacity="1.0" inkscape:pageopacity="0.0" inkscape:pageshadow="2" inkscape:zoom="0.98994949" inkscape:cx="122.97558" inkscape:cy="136.07334" inkscape:document-units="mm" inkscape:current-layer="layer1" inkscape:document-rotation="0" showgrid="false" units="px" inkscape:window-width="1366" inkscape:window-height="705" inkscape:window-x="-8" inkscape:window-y="-8" inkscape:window-maximized="1"/>
  <metadata id="metadata5">
    <rdf:RDF>
      <cc:Work rdf:about="">
        <dc:format>image/svg+xml</dc:format>
        <dc:type rdf:resource="http://purl.org/dc/dcmitype/StillImage"/>
        <dc:title/>
      </cc:Work>
    </rdf:RDF>
  </metadata>
  <g inkscape:label="Layer 1" inkscape:groupmode="layer" id="layer1">
    <path style="fill:#273839;fill-opacity:1;stroke-width:0.147148" d="m 54.970377,27.748714 v -2.942959 h 4.561587 4.561588 v 2.853638 c 0,2.466412 -0.03159,2.865761 -0.232754,2.942959 -0.128018,0.04911 -2.180734,0.08931 -4.56159,0.08931 h -4.328831 z m 8.191354,1.675242 c 0.226209,-0.345237 0.229764,-0.424705 0.03454,-0.772527 L 62.978654,28.26373 h -3.450353 -3.450354 l -0.197702,0.4125 c -0.170286,0.355281 -0.164985,0.462425 0.0382,0.772528 l 0.235903,0.360028 h 3.377617 3.377622 z m -6.903806,0.07874 c -0.319922,-0.186334 -0.332348,-0.628093 -0.02628,-0.934161 0.195166,-0.195173 0.701582,-0.231235 3.246931,-0.231235 1.797397,0 3.13068,0.06153 3.300319,0.152328 0.161501,0.08643 0.284621,0.30697 0.284621,0.509841 0,0.202864 -0.12312,0.423406 -0.284621,0.50984 -0.375877,0.201162 -6.174344,0.19528 -6.520972,-0.0066 z m 6.921905,-2.89439 0.04274,-1.213965 H 59.537919 55.85327 v 1.152655 c 0,0.633968 0.04529,1.197958 0.100652,1.253311 0.05536,0.05535 1.69422,0.08295 3.641914,0.06134 l 3.541259,-0.03934 z M 29.746224,27.15116 24.902067,25.688636 H 15.803954 6.7058439 v -1.618622 -1.618628 h 9.2472741 9.247275 l 4.790261,1.545055 4.790261,1.545049 h 2.585009 c 3.000497,0 2.942455,-0.03051 2.942455,1.545056 0,1.583002 0.07221,1.546493 -3.03772,1.53609 l -2.680274,-0.009 z m 9.773618,0.900533 c 0,-0.396228 -0.278366,-0.529126 -0.54655,-0.260941 -0.268185,0.268185 -0.135285,0.546551 0.260939,0.546551 0.184618,0 0.285611,-0.100997 0.285611,-0.28561 z M 24.59305,23.320151 c 0.05482,-0.0887 -0.0012,-0.26207 -0.124342,-0.385284 -0.268185,-0.268185 -0.546551,-0.135281 -0.546551,0.260941 0,0.312543 0.497582,0.404764 0.670893,0.124343 z m 21.425703,3.580105 c -0.337147,-0.709452 -0.612992,-1.378171 -0.612992,-1.486027 0,-0.422392 0.50195,-1.220799 0.895424,-1.424269 1.077948,-0.557433 1.859045,-0.141156 2.636476,1.405084 0.323533,0.64347 0.588244,1.23697 0.588244,1.318884 0,0.141383 -2.503329,1.476223 -2.76847,1.476223 -0.06913,0 -0.401533,-0.58045 -0.738682,-1.289895 z m 1.896674,-0.03877 c 0.155703,-0.08334 0.387309,-0.353036 0.514675,-0.599338 0.474165,-0.916925 -0.179822,-1.897814 -1.265332,-1.897814 -0.439841,0 -0.635071,0.09436 -0.936617,0.452734 -0.515993,0.613227 -0.499167,1.217452 0.04918,1.7658 0.455507,0.455508 1.102082,0.565483 1.638096,0.278618 z m -1.453979,-0.483355 c -0.740971,-0.78873 -0.120666,-1.856779 1.004386,-1.729379 0.306452,0.03474 0.882885,0.70606 0.882885,1.028268 0,0.146439 -0.137238,0.440718 -0.304977,0.65396 -0.398655,0.506808 -1.129994,0.528596 -1.582294,0.04716 z M 3.2444618,23.536734 C 3.1179621,21.006236 3.1987342,19.983572 3.5836856,19.241788 l 0.2816251,-0.542676 h 1.0156096 1.0156099 l 0.1038681,1.545052 c 0.057128,0.849778 0.1475681,2.422424 0.2009789,3.494766 l 0.097111,1.949706 H 4.8252617 3.3520352 Z m 30.9998192,0.525551 -1.19895,-1.037756 v -5.182696 -5.182694 l 1.143651,-1.136945 1.143654,-1.136944 2.203964,8.2e-4 2.203964,8.19e-4 0.919674,0.820407 0.919675,0.820405 v 5.852573 5.852578 l -1.028271,0.683755 -1.028272,0.683755 H 37.483301 35.443233 L 34.244281,24.0626 Z m 5.569857,-0.65444 V 22.157088 H 37.82764 c -2.462859,0 -2.525196,0.03833 -2.452172,1.508269 l 0.04935,0.993252 h 2.194664 2.194664 z m -3.938042,0.925178 c 0.04537,-0.136113 0.442833,-0.189436 1.412001,-0.189436 1.825312,0 1.773101,0.281644 -0.0624,0.336581 -1.100759,0.03297 -1.398805,4.23e-4 -1.349606,-0.147145 z m 3.055155,-0.851605 c 0,-0.931935 0.02803,-1.030032 0.294295,-1.030032 0.266267,0 0.294296,0.0981 0.294296,1.030032 0,0.931942 -0.02803,1.030039 -0.294296,1.030039 -0.266267,0 -0.294295,-0.0981 -0.294295,-1.030039 z m -3.062096,0.03682 c 0.04307,-0.223637 0.232957,-0.257511 1.443467,-0.257511 1.21051,0 1.4004,0.03385 1.443468,0.257511 0.0446,0.231581 -0.100714,0.257505 -1.443468,0.257505 -1.342754,0 -1.488066,-0.02591 -1.443467,-0.257505 z m 0.02238,-0.662168 c -0.180587,-0.294115 0.230102,-0.404657 1.503345,-0.404657 1.107165,0 1.389221,0.04274 1.389221,0.210625 0,0.164842 -0.306963,0.220813 -1.412403,0.257505 -0.776821,0.02579 -1.442895,-0.0032 -1.480163,-0.06347 z m -2.036892,-4.819097 c 0.121208,-0.381895 -0.04966,-0.915178 -0.269995,-0.842675 -0.0943,0.03103 -0.193239,0.205027 -0.219872,0.386671 -0.09802,0.668515 0.303724,1.042485 0.489867,0.456004 z m 6.395588,-0.21428 c 0.218976,-0.263847 0.07972,-0.521461 -0.281888,-0.521461 -0.329222,0 -0.486484,0.344603 -0.260427,0.570661 0.218271,0.218271 0.328648,0.208255 0.542315,-0.0492 z m 0.05443,-3.674381 c 0.12292,-0.320327 -0.289262,-0.606728 -0.555356,-0.385888 -0.267829,0.222279 -0.134931,0.595849 0.211976,0.595849 0.144544,0 0.299066,-0.09448 0.34338,-0.209961 z M 39.814139,12.151025 V 10.826693 H 37.618994 35.42385 l -0.04886,1.050731 c -0.0744,1.599926 -0.07738,1.597933 2.387422,1.597933 h 2.051729 z m -3.791194,1.005833 c -0.355664,-0.355667 -0.163749,-0.417237 1.300468,-0.417237 1.332342,0 1.47729,0.02603 1.433037,0.257508 -0.04151,0.217091 -0.24561,0.264099 -1.300467,0.299516 -0.847198,0.02845 -1.309943,-0.01669 -1.433038,-0.139787 z m 3.006406,0.07325 c -0.05395,-0.05395 -0.0981,-0.550579 -0.0981,-1.103608 0,-0.907411 0.02871,-1.005512 0.294295,-1.005512 0.268137,0 0.294297,0.0981 0.294297,1.103609 0,0.821577 -0.05014,1.103611 -0.196197,1.103611 -0.10791,0 -0.240344,-0.04415 -0.294296,-0.0981 z m -3.084978,-0.877759 c -0.05678,-0.05677 -0.103229,-0.191517 -0.103229,-0.299424 0,-0.150515 0.345142,-0.196198 1.482269,-0.196198 1.33235,0 1.477288,0.02603 1.433012,0.25751 -0.04185,0.218772 -0.249292,0.263815 -1.379041,0.299424 -0.731382,0.02307 -1.376237,-0.0045 -1.433011,-0.06131 z m -0.06827,-0.968355 c 0.04537,-0.136108 0.442833,-0.189431 1.412001,-0.189431 1.825311,0 1.773101,0.281642 -0.0624,0.336579 -1.100759,0.03295 -1.398805,4.18e-4 -1.349605,-0.147148 z m 19.094279,7.020817 v -6.10664 h 0.809316 0.809314 v 6.10664 6.106643 h -0.809314 -0.809316 z m 2.011024,6.008546 c -0.05395,-0.05397 -0.0981,-2.801944 -0.0981,-6.106648 v -6.008538 h 2.648662 2.648664 v 6.10664 6.106643 H 59.63007 c -1.402812,0 -2.594711,-0.04413 -2.648665,-0.0981 z m 4.316343,-4.537065 v -3.605127 h -1.76578 -1.765773 v 3.605127 3.605123 h 1.765773 1.76578 z m -3.237256,3.310832 c 0,-0.08824 0.585697,-0.147152 1.462792,-0.147152 0.816473,0 1.502981,0.06502 1.55374,0.147152 0.05844,0.09455 -0.464442,0.147146 -1.462797,0.147146 -0.937727,0 -1.553735,-0.05832 -1.553735,-0.147146 z m -0.04423,-0.387572 c -0.2784,-0.278404 0.02778,-0.348169 1.527966,-0.348169 1.239151,0 1.616241,0.04419 1.569891,0.183932 -0.06668,0.201067 -2.910272,0.351819 -3.097857,0.164237 z m 0,-0.735742 c -0.05661,-0.05661 -0.102922,-0.257427 -0.102922,-0.44627 0,-0.339009 0.02057,-0.343343 1.628399,-0.343343 h 1.628403 l -0.04656,0.404659 -0.04657,0.40465 -1.478917,0.04161 c -0.813407,0.02288 -1.525235,-0.0044 -1.581842,-0.06134 z m -0.04443,-1.290861 c -0.04586,-0.119514 -0.06033,-0.337046 -0.03211,-0.483408 0.04555,-0.236531 0.22273,-0.2661 1.594287,-0.2661 h 1.543037 v 0.441443 0.441442 l -1.510898,0.04196 c -1.224083,0.03399 -1.526728,8.2e-4 -1.594287,-0.175342 z m 0,-1.324331 c -0.04586,-0.119515 -0.06033,-0.337047 -0.03211,-0.483408 0.04555,-0.236531 0.22273,-0.266101 1.594287,-0.266101 h 1.543037 v 0.441443 0.441442 l -1.510898,0.04197 c -1.224083,0.03399 -1.526728,8.19e-4 -1.594287,-0.175342 z m 0.04443,-1.210655 c -0.05661,-0.05661 -0.102922,-0.22432 -0.102922,-0.372695 0,-0.24535 0.147457,-0.269772 1.628861,-0.269772 1.605024,0 1.628174,0.0049 1.581842,0.331083 -0.04474,0.315 -0.118866,0.333107 -1.52594,0.372694 -0.813406,0.0229 -1.525235,-0.0047 -1.581841,-0.06131 z m -0.05152,-1.162197 c -0.163139,-0.425146 0.171906,-0.522216 1.653773,-0.479133 1.346275,0.03913 1.458508,0.06505 1.458508,0.336697 0,0.272467 -0.112087,0.29741 -1.510898,0.33626 -1.275525,0.03541 -1.524997,0.0052 -1.601383,-0.193824 z m 4.510187,1.329045 v -6.10664 h 0.809315 0.809308 v 5.311465 c 0,4.392385 -0.03997,5.44906 -0.231165,6.106645 -0.229072,0.787986 -0.236385,0.795173 -0.809307,0.795173 H 62.474929 Z M 45.476482,23.615577 C 45.356908,23.07115 44.964702,22.859485 44.18179,22.916874 l -0.615375,0.04508 -0.04512,-0.703198 c -0.03762,-0.586306 0.0113,-0.750235 0.294298,-0.986142 0.311891,-0.260002 0.602761,-0.28334 3.587801,-0.287836 3.208248,-0.0049 3.252346,-8.2e-4 3.568337,0.335671 0.223289,0.237684 0.319947,0.526625 0.319947,0.956458 v 0.615925 h -0.945781 c -0.846481,0 -0.977803,0.04073 -1.250759,0.387711 -0.167736,0.213248 -0.304975,0.47811 -0.304975,0.588595 0,0.264793 -0.212903,0.255532 -0.440883,-0.01917 -0.100441,-0.121027 -0.438314,-0.29665 -0.750825,-0.390283 -0.510174,-0.152851 -0.642714,-0.13158 -1.297769,0.208274 l -0.729568,0.378512 z m -3.536338,-0.705871 c -0.03626,-0.03625 -0.06593,-2.273148 -0.06593,-4.97086 v -4.904932 h 0.882888 0.882883 v 0.735741 0.73574 h 0.510491 0.510488 l 0.04134,1.802561 0.04134,1.80256 0.911544,0.0436 0.911549,0.04359 0.04491,0.618568 0.04491,0.618566 0.837749,0.04388 0.83775,0.04388 0.04513,-0.706047 0.04514,-0.70605 h 0.956463 0.95646 l 0.04134,-1.80256 0.04129,-1.802561 h 1.172652 1.172658 v 4.193719 4.193717 h -0.588595 -0.588596 v -0.687367 c 0,-0.44422 -0.08975,-0.786535 -0.253708,-0.967712 -0.139541,-0.154194 -0.321636,-0.490491 -0.404657,-0.747328 l -0.150945,-0.466978 -3.292302,-0.03967 c -3.491672,-0.04205 -3.697229,-0.0064 -3.697229,0.641081 0,0.194077 -0.128588,0.413492 -0.294294,0.502178 -0.2381,0.127427 -0.294298,0.3081 -0.294298,0.946178 v 0.788686 l -0.596234,0.05687 c -0.327931,0.03127 -0.625906,0.02717 -0.662166,-0.0091 z M 52.54244,17.301205 v -2.133644 h -0.882891 -0.882886 l -0.01973,2.060071 c -0.01084,1.133039 0.01156,2.112861 0.04977,2.177388 0.03821,0.06452 0.444395,0.09763 0.90261,0.07357 l 0.833118,-0.04374 z m -1.545055,-0.07357 v -1.692203 h 0.662167 0.662166 v 1.692203 1.692199 h -0.662169 -0.662168 z m -18.577432,5.037722 c -0.224773,-0.546749 -0.256725,-1.14996 -0.251341,-4.744972 0.0057,-3.774411 0.02973,-4.161639 0.288129,-4.633617 l 0.281959,-0.515017 0.0062,5.260541 c 0.0034,2.893295 -0.01039,5.260294 -0.03062,5.259985 -0.02023,-2.96e-4 -0.152664,-0.282414 -0.294295,-0.62692 z m 46.829841,0.362354 c 0,-0.567614 0.176411,-0.766117 0.764402,-0.860143 0.321829,-0.05146 0.620672,-0.18616 0.664104,-0.299327 0.224438,-0.584871 -1.060881,-4.84856 -1.747284,-5.796102 -0.624549,-0.862171 -1.120514,-1.019592 -3.212246,-1.019592 -1.679454,0 -1.821626,-0.02369 -2.649191,-0.441447 L 72.195083,13.769655 H 69.321505 66.44792 V 12.84512 11.920591 l 5.11339,0.05834 c 5.054922,0.05767 5.116599,0.05479 5.393711,-0.252654 0.25828,-0.286552 0.432232,-0.31099 2.21337,-0.31099 h 1.93305 l 0.607509,0.625376 c 0.574026,0.590911 0.669766,0.827701 1.737171,4.296431 l 1.129662,3.671052 -0.479371,0.990914 -0.479371,0.990908 -1.263953,0.402393 c -0.695172,0.221324 -1.677802,0.432183 -2.183633,0.468578 -0.848471,0.06103 -0.919661,0.043 -0.919661,-0.233233 z m 2.348658,-2.814331 c 0.190855,-0.356605 0.06229,-0.708602 -0.300867,-0.823867 -0.448662,-0.142398 -0.563012,0.03107 -0.390661,0.592633 0.175024,0.570272 0.459222,0.665303 0.691528,0.231234 z M 80.93148,18.541452 c 0.323758,-0.323754 0.287867,-0.758145 -0.07886,-0.954408 -0.46832,-0.250639 -0.642089,0.01481 -0.430115,0.657078 0.200046,0.606147 0.200122,0.606189 0.508977,0.29733 z m -0.235698,-1.801654 c 0.05869,-0.412087 -0.208557,-0.762924 -0.581125,-0.762924 -0.32123,0 -0.334281,0.08396 -0.112118,0.721292 0.190634,0.546863 0.617646,0.572503 0.693243,0.04163 z M 79.606771,14.20947 c 0.600196,-0.972417 0.646433,-1.515765 0.135161,-1.588626 -0.323859,-0.04615 -0.729765,0.387952 -1.307094,1.397873 -0.267075,0.467194 -0.266584,0.47142 0.08926,0.767628 0.196806,0.163817 0.398076,0.300054 0.447269,0.302745 0.04917,0.0025 0.335126,-0.393137 0.6354,-0.87962 z m -0.355419,-0.658662 c -0.238939,-0.287907 -0.08466,-0.664043 0.272383,-0.664043 0.348037,0 0.526718,0.406635 0.299178,0.68082 -0.214768,0.258767 -0.346077,0.254913 -0.571561,-0.01677 z M 64.535,21.862792 c 0,-0.555894 0.05397,-0.73574 0.220719,-0.73574 0.164256,0 0.220724,-0.173422 0.220724,-0.677908 0,-0.542133 -0.04419,-0.660948 -0.220724,-0.593213 -0.134449,0.0516 -0.220719,2.97e-4 -0.220719,-0.131402 0,-0.16745 0.211281,-0.216106 0.938435,-0.216106 1.189555,0 1.295595,-0.121655 1.239019,-1.421448 L 66.668638,17.080482 65.601819,17.037246 64.535,16.99401 V 14.425372 11.85673 h 0.802858 0.802871 l 0.04325,1.066825 0.04325,1.066823 2.869393,0.07357 2.869379,0.07357 0.915481,0.478232 c 0.846183,0.44203 1.02161,0.478231 2.317571,0.478231 h 1.402109 v 1.315834 c 0,1.286537 -0.01349,1.337312 -0.605025,2.280792 l -0.605032,0.96496 h -0.819193 c -0.769955,0 -0.97212,0.08845 -3.363163,1.47148 l -2.543957,1.471479 H 66.59991 64.535034 Z m 1.765768,-1.397905 c 0,-0.63764 -0.01633,-0.662168 -0.441444,-0.662168 -0.425096,0 -0.441443,0.02453 -0.441443,0.662168 0,0.637639 0.01633,0.662165 0.441443,0.662165 0.425096,0 0.441444,-0.02452 0.441444,-0.662165 z m 3.128473,-1.792574 c 1.449121,-0.8912 1.574497,-1.003418 1.578009,-1.412426 0.0019,-0.239373 -0.153652,-0.258464 -1.800304,-0.22072 l -1.802566,0.04134 -0.044,1.015439 c -0.02421,0.558488 -0.0097,1.104776 0.03215,1.213967 0.141283,0.368186 0.670863,0.202404 2.036708,-0.637576 z m -16.484512,-0.230714 0.03917,-4.009779 0.77253,-0.04448 0.772525,-0.04448 v 4.054256 4.054265 h -0.811679 -0.811676 z m -32.259826,1.949713 v -1.765774 h 1.986498 1.986497 v 1.765774 1.765776 H 22.671401 20.684903 Z M 8.7659171,21.789217 c 0,-0.177801 -0.2288974,-0.220722 -1.1771842,-0.220722 H 6.4115493 v -1.324331 -1.324333 h 6.8423807 6.842381 v 1.324333 1.324331 h -1.250758 c -1.013687,0 -1.250757,0.04184 -1.250757,0.220722 0,0.13734 -0.138974,0.220725 -0.36787,0.220725 -0.228898,0 -0.367871,-0.08338 -0.367871,-0.220725 0,-0.19031 -0.506843,-0.220722 -3.678699,-0.220722 -3.171856,0 -3.6786995,0.03041 -3.6786995,0.220722 0,0.13734 -0.1389727,0.220725 -0.36787,0.220725 -0.2288968,0 -0.3678694,-0.08338 -0.3678694,-0.220725 z m 16.5115889,-1.505438 0.04256,-1.290373 h 3.237256 3.237255 v 1.250758 1.250757 l -3.279812,0.03962 -3.279815,0.03962 z m 18.803923,0.181108 c 0,-0.151559 0.09644,-0.223731 0.257509,-0.192712 0.310164,0.05973 0.290606,0.320886 -0.02903,0.387436 -0.133313,0.02774 -0.228495,-0.05335 -0.228495,-0.194724 z m 6.033068,-0.01081 c 0,-0.137031 0.100116,-0.212098 0.245313,-0.183935 0.369161,0.07159 0.419852,0.415445 0.06124,0.415445 -0.180748,0 -0.306557,-0.09501 -0.306557,-0.231515 z m -4.971392,-4.366867 0.04193,-1.508264 0.625381,-0.04525 0.625377,-0.04525 v 1.553513 1.553514 H 45.76848 45.101166 Z m 3.499911,-0.03679 v -1.545054 h 0.662167 0.662164 v 1.545054 1.545051 H 49.305183 48.643016 Z M 3.7685584,16.498728 C 3.2257924,15.844732 3.0434302,13.781172 3.2705583,10.863481 L 3.3650602,9.6495108 H 4.8264239 6.2877875 L 6.2051988,11.525648 C 6.1597746,12.557522 6.0824375,14.14672 6.0333381,15.057201 L 5.944066,16.712615 H 4.9450666 c -0.6942939,0 -1.0531414,-0.06524 -1.1765082,-0.213887 z M 20.684902,14.946837 v -1.765774 h 1.986497 1.986498 v 1.765774 1.765778 H 22.671399 20.684902 Z M 6.4115481,15.093986 v -1.324331 h 1.1771835 c 0.9482869,0 1.1771842,-0.04292 1.1771842,-0.220724 0,-0.137339 0.1389727,-0.22072 0.3678694,-0.22072 0.2288974,0 0.36787,0.08338 0.36787,0.22072 0,0.190312 0.5068438,0.220724 3.6786998,0.220724 3.171856,0 3.678699,-0.03041 3.678699,-0.220724 0,-0.137339 0.138973,-0.22072 0.36787,-0.22072 0.228897,0 0.36787,0.08338 0.36787,0.22072 0,0.178887 0.237071,0.220724 1.250757,0.220724 h 1.250759 v 1.324331 1.32433 H 13.253929 6.4115481 Z m 18.8659979,0.03679 0.04252,-1.287544 h 3.237256 3.237254 l 0.04252,1.287544 0.04252,1.287545 H 28.557325 25.235036 Z M 44.072832,14.25438 C 43.874208,14.20761 43.84957,13.87122 43.888737,11.741015 l 0.04522,-2.4593661 0.809473,-0.044131 c 0.748938,-0.040834 0.809476,-0.071093 0.809476,-0.4046571 0,-0.3482683 -0.03504,-0.3605273 -1.030038,-0.3605273 -0.588591,0 -1.030033,-0.063063 -1.030033,-0.1471476 0,-0.087772 0.564064,-0.1471483 1.397906,-0.1471483 1.393001,0 1.397902,-0.00132 1.397902,-0.3678693 V 7.4422945 h 1.692203 1.692202 v 0.5150183 0.5150176 h -1.397907 c -1.393001,0 -1.397902,0.00132 -1.397902,0.3678707 v 0.36787 h 2.12235 c 2.05639,0 2.136125,-0.011581 2.5652,-0.3726255 0.42663,-0.3589883 0.506479,-0.3711054 2.181724,-0.3310829 l 1.738878,0.04154 0.04272,1.1257733 0.04271,1.125773 -0.778452,0.10545 c -1.452389,0.196739 -2.02921,0.718847 -2.02921,1.836721 0,1.021292 -0.288113,1.324332 -1.259104,1.324332 -0.662862,0 -0.801815,-0.0444 -0.805865,-0.257513 -0.0042,-0.211305 -0.05979,-0.191509 -0.31084,0.110364 l -0.305945,0.367868 -2.889628,0.01185 c -1.589295,0.0065 -2.992819,-0.01243 -3.118947,-0.04214 z m 0.973787,-2.264616 c 0.129726,-0.209899 -0.299724,-0.639351 -0.509628,-0.509624 -0.08869,0.05482 -0.161267,0.228194 -0.161267,0.385282 0,0.312543 0.497585,0.404767 0.670895,0.124342 z M 49.7926,11.817815 c 0.05856,-0.304096 -0.366225,-0.509002 -0.590424,-0.284805 -0.224194,0.224195 -0.01927,0.648982 0.284804,0.590419 0.140947,-0.02715 0.278474,-0.164672 0.30562,-0.305614 z m 3.117935,1.547186 c 2.96e-4,-0.919307 0.386993,-1.665145 1.029808,-1.986268 0.598744,-0.299107 1.549435,-0.339968 1.717186,-0.0738 0.0762,0.1209 0.142532,0.03266 0.193566,-0.257508 0.05548,-0.315433 0.171874,-0.454865 0.407777,-0.488464 0.46581,-0.06635 0.465021,-0.7226675 -8.2e-4,-0.7888465 -0.237058,-0.033666 -0.344306,-0.1619429 -0.377645,-0.4516782 l -0.04656,-0.4046571 h 1.11338 c 0.644093,0 1.113323,0.062017 1.113323,0.1471483 0,0.087127 0.536645,0.1471482 1.315643,0.1471482 0.723608,0 1.356576,-0.066217 1.406592,-0.1471482 0.05002,-0.080932 0.609049,-0.1471483 1.242289,-0.1471483 1.108335,0 1.153946,0.013611 1.221007,0.364412 0.081,0.4237193 0.01627,0.5184763 -0.354176,0.5184763 -0.189656,0 -0.269767,0.1092453 -0.269767,0.3678685 0,0.294297 0.07357,0.367872 0.367867,0.367872 0.337895,0 0.367873,0.05395 0.367873,0.662165 v 0.662166 h -4.325126 c -4.905871,0 -4.503755,-0.119319 -4.503755,1.336366 v 0.870856 h -0.809328 -0.809315 l 2.96e-4,-0.698956 z M 6.7058439,11.341715 V 9.6495108 h 9.1489651 9.148965 l 4.899595,-1.4714794 4.899596,-1.4714801 h 2.573983 c 2.987911,0 2.931431,-0.02977 2.931431,1.5450542 0,1.5732048 0.05295,1.5450536 -2.906533,1.5450536 h -2.549088 l -5.011565,1.6186299 -5.011564,1.618625 H 15.767737 6.7058439 Z m 17.8182921,0.75187 c -0.228344,-0.275136 -0.601979,-0.14599 -0.601979,0.208072 0,0.345093 0.31046,0.456667 0.575952,0.206983 0.166657,-0.156739 0.17184,-0.239363 0.02603,-0.415055 z M 39.519842,7.3038275 c 0,-0.3962237 -0.278366,-0.5291226 -0.54655,-0.2609378 -0.268185,0.2681847 -0.135285,0.5465493 0.260939,0.5465493 0.184618,0 0.285611,-0.1009934 0.285611,-0.2856115 z m 2.795812,3.8171635 V 9.5023626 h 0.662167 0.662161 v 1.6186284 1.61863 h -0.662161 -0.662167 z m -0.515018,0.362157 C 41.541455,11.09941 41.494565,10.705043 41.407655,8.1780314 41.35338,6.5998694 41.264671,4.967747 41.210528,4.5510938 41.093202,3.6482223 41.291717,3.175 41.787796,3.175 c 0.559245,0 0.71448,0.3280675 0.606896,1.2825901 -0.05276,0.4680804 -0.141787,2.3383582 -0.197841,4.1561724 l -0.10192,3.3051135 z M 63.652108,10.164527 V 8.6194755 h 1.834939 1.834946 l 0.321275,-0.4345426 c 0.253981,-0.343528 0.376035,-0.4052352 0.582719,-0.2946193 0.143799,0.076958 0.282635,0.2890569 0.308515,0.4713303 0.03789,0.26676 0.16657,0.3473566 0.659709,0.4131795 0.336954,0.044976 0.702574,0.1564095 0.812492,0.2476304 0.126448,0.1049519 1.153575,0.1829921 2.797093,0.2125215 2.535604,0.045556 2.606705,0.055397 2.995532,0.4145355 0.457677,0.4227302 0.801799,1.1469712 0.801799,1.6874782 v 0.372594 h -6.47452 -6.474499 z m 10.93159,-0.07357 c -0.07401,-0.2830306 -0.200714,-0.2942979 -3.309322,-0.2942979 -2.520297,0 -3.218924,0.040519 -3.171388,0.1839341 0.05895,0.1779648 1.595371,0.2868318 5.2839,0.3744118 1.20836,0.0287 1.269816,0.01514 1.19681,-0.264048 z M 43.492838,7.6858194 c 0,-0.1088538 0.121091,-0.307503 0.269096,-0.4414435 0.226205,-0.204716 0.635229,-0.2435287 2.566405,-0.2435287 1.372813,0 2.333906,0.059218 2.388252,0.1471483 0.05807,0.093963 -0.390867,0.1471482 -1.242073,0.1471482 -1.234919,0 -1.333017,0.021656 -1.333017,0.2942953 0,0.272497 -0.0981,0.2942952 -1.324331,0.2942952 -1.011264,0 -1.324332,-0.046785 -1.324332,-0.1979148 z" id="path861"/>
  </g>
<style id="stylish-2" class="stylish" type="text/css">.top-bar {
    display: none;
}</style></svg>