<?xml version="1.0" encoding="UTF-8" standalone="no"?>
<!-- Created with Inkscape (http://www.inkscape.org/) -->
<svg width="512" height="117.282" viewBox="0 0 135.46667 31.030862" version="1.1" id="svg5" xml:space="preserve" inkscape:version="1.2.1 (9c6d41e410, 2022-07-14)" sodipodi:docname="knife.svg" xmlns:inkscape="http://www.inkscape.org/namespaces/inkscape" xmlns:sodipodi="http://sodipodi.sourceforge.net/DTD/sodipodi-0.dtd" xmlns="http://www.w3.org/2000/svg" xmlns:svg="http://www.w3.org/2000/svg"><sodipodi:namedview id="namedview7" pagecolor="#ffffff" bordercolor="#000000" borderopacity="0.25" inkscape:showpageshadow="2" inkscape:pageopacity="0.0" inkscape:pagecheckerboard="0" inkscape:deskcolor="#d1d1d1" inkscape:document-units="mm" showgrid="false" inkscape:zoom="0.65134574" inkscape:cx="295.54197" inkscape:cy="224.15131" inkscape:window-width="1366" inkscape:window-height="697" inkscape:window-x="-8" inkscape:window-y="-8" inkscape:window-maximized="1" inkscape:current-layer="layer1"/><defs id="defs2"/><g inkscape:label="Layer 1" inkscape:groupmode="layer" id="layer1"><g id="g1227" transform="matrix(0.83002308,0,0,0.83002308,-18.520153,-78.177378)"><path style="fill:#273839;fill-opacity:1;stroke:none;stroke-width:0.264583" d="m 141.66024,103.79929 h -3.62633 l -7.6117,11.63298 h 3.62633 z" id="path547-0" sodipodi:nodetypes="ccccc"/><path style="fill:#273839;fill-opacity:1;stroke:none;stroke-width:0.264583" d="m 147.08178,103.79929 h -3.62632 l -7.6117,11.59708 h 3.62633 z" id="path547-5" sodipodi:nodetypes="ccccc"/><path style="fill:#273839;fill-opacity:1;stroke:none;stroke-width:0.264583" d="m 152.57513,103.7992 h -3.62633 l -7.32447,11.45346 h 3.62633 z" id="path547-06" sodipodi:nodetypes="ccccc"/><path style="fill:#273839;fill-opacity:1;stroke:none;stroke-width:0.264583" d="m 158.28391,103.79929 h -3.62633 l -7.46808,11.27394 h 3.62633 z" id="path547-1" sodipodi:nodetypes="ccccc"/><path style="fill:#273839;fill-opacity:1;stroke:none;stroke-width:0.264583" d="m 163.81317,103.79929 h -3.62633 l -7.32447,11.30985 h 3.62633 z" id="path547-4" sodipodi:nodetypes="ccccc"/><path style="fill:#273839;fill-opacity:1;stroke:none;stroke-width:0.264583" d="m 169.62965,103.799 -3.62633,2.9e-4 -7.09124,11.02331 h 3.62633 z" id="path547-2" sodipodi:nodetypes="ccccc"/><path id="path419" style="fill:#273839;fill-opacity:1;stroke:none;stroke-width:0.264583" d="m 66.06005,102.26301 -7.819677,4.31653 c -0.787638,0.52787 -0.496381,1.10178 0,1.21853 9.431025,3.11495 19.880725,3.73979 30.516483,3.90984 0.783672,0.007 1.209822,-0.40159 1.218531,-0.86351 0.05101,-3.29894 1.540385,-5.94402 3.046842,-8.58139 z m 0.373621,1.01337 H 91.49364 c -1.343442,1.98816 -2.163161,4.18507 -2.208651,6.67195 -0.0078,0.34822 -0.387885,0.65612 -1.086755,0.65112 -9.484852,-0.12819 -19.540264,-0.80253 -27.950749,-3.15071 -0.442666,-0.088 -0.702407,-0.52088 0,-0.91881 z"/><path style="fill:#273839;fill-opacity:1;stroke:none;stroke-width:0.264583" d="m 60.965426,100.17287 h -5.960107 l -28.867021,12.56649 c 20.137103,9.07391 40.229868,12.58504 62.257977,15.00798 3.136172,-2.41888 6.165572,-4.57084 8.545213,-5.0984 -3.297619,-2.08456 -4.851804,-7.66434 -9.406914,-7.61171 C 74.284562,114.39771 60.921747,114.03024 49.906914,108 l -20.034575,4.2367 19.890959,-4.95479 z" id="path540" sodipodi:nodetypes="cccccccccc"/><path id="path542" style="fill:#273839;fill-opacity:1;stroke:none;stroke-width:0.264583" d="m 105.8509,98.013656 c -2.23873,-0.02055 -4.39917,0.172347 -6.252328,0.722953 C 95.378897,100.3794 90.549148,100.1924 85.8113,100.2807 H 63.155835 l -12.100037,7.18096 c 10.675644,4.35588 22.355917,6.75879 35.467086,6.37894 2.949606,-0.15156 5.157435,0.76078 6.549988,2.84323 2.184605,3.37706 5.717023,6.1047 7.616588,6.85488 3.44038,1.16681 6.75362,0.93413 10.00301,0 1.16219,-0.36792 6.01548,-1.90007 8.22534,-3.09748 1.9045,-1.14076 3.60402,-1.73451 5.07772,-1.72651 l 47.01884,-1.67535 c 1.37585,-0.0195 2.72472,-0.15402 3.76773,-1.57148 l 6.03167,-8.47339 c 0.75632,-1.31649 1.39223,-2.63262 0.28732,-3.94911 -0.68539,-0.73979 -1.37116,-1.23444 -2.51354,-1.29294 L 137.65671,100.891 120.70994,99.957206 c -2.90719,-0.443408 -9.13778,-1.891036 -14.85904,-1.94355 z m -2.68097,1.968872 c 0.31209,0.0027 0.62925,0.01808 0.9524,0.04651 l 8.68887,0.50281 c 3.30917,0.29547 6.34142,1.04086 8.04241,3.94963 1.93754,-1.05086 4.45323,4.14572 2.0469,5.02656 0.81216,3.57921 -0.37232,6.0173 -2.90835,7.68326 l -9.76633,4.88342 c -4.28301,2.18227 -8.50264,1.2655 -10.986409,-0.93379 l -3.80597,-3.8778 c -4.812754,-5.13239 -3.034753,-11.38323 0,-14.28957 2.128752,-1.80484 4.545864,-2.93766 7.425899,-2.98953 0.10286,-0.0019 0.20655,-0.0025 0.31058,-0.0015 z m -37.10988,1.468642 h 26.251111 c 1.611954,-0.0386 2.646723,0.84005 1.218531,2.13269 -1.896542,2.0652 -2.286997,4.82028 -2.589506,7.61607 -0.09649,1.16257 -1.358505,1.46602 -2.437061,1.42162 -10.400639,-0.60434 -20.901891,-0.1455 -30.984672,-4.11913 -1.852841,-0.81806 -1.482043,-1.72153 0.179834,-2.67477 z m 67.35455,1.11673 39.47872,0.25425 c 1.26923,-0.01 7.81498,0.43408 5.43275,4.4173 l -5.30562,7.38818 c -0.44113,0.52121 -1.06128,0.8301 -2.20917,0.86299 l -34.75654,0.91416 c -0.0581,0.81376 0.20453,1.44694 -1.31981,1.59939 l -4.39198,0.0522 c -1.28488,0.0186 -1.65419,-0.90842 -1.70119,-1.65158 h -2.33577 c -2.90171,0.0666 -3.06615,-1.16496 -1.85312,-2.8944 l 6.04201,-9.34258 c 0.65787,-1.24268 1.72365,-1.5682 2.91972,-1.5999 z"/><path style="fill:#273839;fill-opacity:1;stroke:none;stroke-width:0.264583" d="m 135.93351,103.7992 h -3.62633 l -7.6117,11.84841 h 3.62633 z" id="path547"/><path id="path636" style="fill:#273839;fill-opacity:1;stroke:none;stroke-width:0.264583" d="m 174.85186,103.79677 c -0.0233,2.8e-4 -0.0466,9e-4 -0.0698,0.002 h -2.85926 l -7.12256,10.84327 h 5.02708 c 1.19954,-0.17687 2.39793,-0.3568 3.26698,-1.72341 l 4.12895,-6.06785 c 0.95666,-1.37003 -0.90071,-3.07228 -2.37143,-3.05407 z m 1.04955,1.29811 c 0.63301,0.003 0.89842,0.77836 0.0294,1.86397 l -3.73414,5.42137 c -1.02053,1.25391 -2.50647,0.22681 -1.54357,-1.04128 l 3.87728,-5.31389 c 0.4789,-0.65504 0.99117,-0.93171 1.37098,-0.93017 z"/><path style="fill:#273839;fill-opacity:1;stroke:none;stroke-width:0.264583" d="m 129.82979,116.405 h 5.11635 c 0.0346,0.36695 -0.0273,0.72067 -0.62832,0.78649 h -3.84176 c -0.49989,-0.0238 -0.65249,-0.35785 -0.64627,-0.78649 z" id="path643" sodipodi:nodetypes="ccccc"/><path style="fill:#273839;fill-opacity:1;stroke:none;stroke-width:0.264583" d="m 121.21276,105.27127 c 0.67038,-0.27042 2.14697,2.4762 1.54389,3.01596 -0.33637,-1.05625 -0.87271,-2.05537 -1.54389,-3.01596 z" id="path647" sodipodi:nodetypes="ccc"/><path style="fill:#273839;fill-opacity:1;stroke:none;stroke-width:0.264583" d="m 119.32427,105.25924 0.60931,-0.30466 c -2.56142,-3.45825 -5.98435,-3.51907 -9.38458,-3.66868 h -7.971 c -2.28195,-0.10945 -4.892428,0.71398 -6.570023,2.62101 -2.560977,2.85476 -2.475002,8.73058 -0.897607,10.80719 1.952657,2.89757 4.474613,5.14451 7.43218,6.89361 1.50758,0.72044 5.09699,0.5303 6.42686,0 l 10.44814,-5.31383 c 2.38992,-1.44758 2.82762,-3.84526 2.62101,-6.49867 l -0.78989,0.46676 c 0.47631,2.2578 -0.0366,4.32184 -2.01064,5.70877 l -10.26862,5.31383 c -1.37135,0.54617 -4.56189,0.77613 -6.21143,0 -2.887787,-1.67479 -5.199488,-3.77995 -7.073141,-6.67819 -1.338997,-1.88064 -1.791392,-6.86665 0.753991,-10.125 1.628305,-2.06184 3.69837,-2.85375 6.13917,-2.90824 h 7.971 c 3.23803,0.22747 6.60939,0.38201 8.77527,3.6861 z" id="path649" sodipodi:nodetypes="ccccccccccccccccccc"/><path id="path651" style="fill:#273839;fill-opacity:1;stroke:none;stroke-width:0.264583" d="m 103.30067,102.00153 c -2.64121,-0.0383 -4.731117,1.31922 -6.089549,2.7497 -1.45634,1.56545 -2.082238,5.26952 -1.72651,6.70295 1.626455,5.11551 4.244441,6.37501 6.651789,8.32714 1.94219,1.43322 5.3569,1.19545 7.08329,0.40618 l 8.708,-4.2907 c 1.94623,-1.14258 2.84382,-2.92787 2.6913,-5.35678 l -1.04076,0.0253 c -0.0843,-1.56138 -0.55454,-3.10117 -1.85363,-4.59506 l 0.91415,-0.5333 c -1.44097,-2.00152 -4.3777,-3.06071 -6.39754,-3.12281 l -8.68319,-0.30438 c -0.0863,-0.004 -0.17215,-0.007 -0.25735,-0.008 z m -0.32711,1.25935 8.90385,0.39481 c 2.92098,0.14881 5.61879,1.8149 6.71432,5.06222 1.53309,3.89855 -0.55095,6.23128 -2.94401,7.21713 l -4.8829,2.33371 c -3.12221,1.58813 -4.8248,1.32603 -7.46828,0.21549 -4.041477,-1.72488 -5.870759,-5.80746 -5.924189,-8.18658 0.198052,-4.40741 2.148277,-6.65011 5.601209,-7.03678 z"/></g></g><style id="stylish-2" class="stylish" type="text/css">.top-bar {
    display: none;
}</style></svg>